<svg xmlns="http://www.w3.org/2000/svg" xmlns:xlink="http://www.w3.org/1999/xlink" width="400" zoomAndPan="magnify" viewBox="0 0 300 270" height="350" preserveAspectRatio="xMidYMid meet" version="1.2"><defs><clipPath id="63c6b410a6"><path d="M 15.222656 31.390625 L 284.472656 31.390625 L 284.472656 161 L 15.222656 161 Z M 15.222656 31.390625 "/></clipPath><clipPath id="35fe631af3"><path d="M 75 171 L 92 171 L 92 236.140625 L 75 236.140625 Z M 75 171 "/></clipPath><clipPath id="48057fc4bb"><path d="M 110 171 L 128 171 L 128 236.140625 L 110 236.140625 Z M 110 171 "/></clipPath><clipPath id="4a8ac333dd"><path d="M 143 171 L 160 171 L 160 236.140625 L 143 236.140625 Z M 143 171 "/></clipPath><clipPath id="42e0f71e30"><path d="M 175 171 L 192 171 L 192 236.140625 L 175 236.140625 Z M 175 171 "/></clipPath><clipPath id="b00c38767e"><path d="M 207 171 L 225 171 L 225 236.140625 L 207 236.140625 Z M 207 171 "/></clipPath></defs><g id="5627b8041b"><g clip-rule="nonzero" clip-path="url(#63c6b410a6)"><path style=" stroke:none;fill-rule:nonzero;fill:#000000;fill-opacity:1;" d="M 264.679688 31.390625 L 35.019531 31.390625 C 34.371094 31.390625 33.722656 31.425781 33.078125 31.488281 C 32.433594 31.554688 31.792969 31.648438 31.160156 31.777344 C 30.523438 31.90625 29.894531 32.0625 29.277344 32.25 C 28.65625 32.441406 28.046875 32.660156 27.449219 32.90625 C 26.851562 33.15625 26.265625 33.433594 25.695312 33.738281 C 25.121094 34.046875 24.566406 34.378906 24.027344 34.738281 C 23.488281 35.097656 22.96875 35.484375 22.46875 35.898438 C 21.96875 36.308594 21.488281 36.742188 21.03125 37.203125 C 20.574219 37.660156 20.136719 38.140625 19.726562 38.640625 C 19.316406 39.140625 18.929688 39.664062 18.570312 40.203125 C 18.210938 40.742188 17.875 41.296875 17.570312 41.867188 C 17.265625 42.4375 16.988281 43.023438 16.738281 43.625 C 16.492188 44.222656 16.273438 44.832031 16.082031 45.453125 C 15.894531 46.070312 15.738281 46.699219 15.609375 47.335938 C 15.480469 47.972656 15.386719 48.613281 15.320312 49.257812 C 15.257812 49.902344 15.222656 50.550781 15.222656 51.199219 L 15.222656 129.660156 C 15.222656 130.675781 15.273438 131.691406 15.375 132.699219 C 15.476562 133.710938 15.625 134.714844 15.824219 135.714844 C 16.023438 136.710938 16.269531 137.695312 16.566406 138.667969 C 16.863281 139.640625 17.203125 140.597656 17.59375 141.535156 C 17.984375 142.472656 18.417969 143.390625 18.898438 144.289062 C 19.375 145.183594 19.898438 146.054688 20.460938 146.898438 C 21.027344 147.746094 21.632812 148.558594 22.277344 149.347656 C 22.921875 150.132812 23.601562 150.882812 24.320312 151.601562 C 25.039062 152.320312 25.792969 153.003906 26.578125 153.648438 C 27.363281 154.292969 28.175781 154.898438 29.019531 155.464844 C 29.867188 156.027344 30.734375 156.550781 31.632812 157.03125 C 32.527344 157.507812 33.445312 157.945312 34.382812 158.332031 C 35.320312 158.722656 36.277344 159.066406 37.25 159.359375 C 38.21875 159.65625 39.203125 159.902344 40.199219 160.101562 C 41.195312 160.300781 42.199219 160.453125 43.210938 160.554688 C 44.222656 160.652344 45.234375 160.703125 46.25 160.707031 L 253.445312 160.707031 C 254.460938 160.703125 255.472656 160.652344 256.484375 160.554688 C 257.496094 160.453125 258.5 160.300781 259.496094 160.101562 C 260.492188 159.902344 261.476562 159.65625 262.449219 159.359375 C 263.421875 159.066406 264.375 158.722656 265.3125 158.332031 C 266.253906 157.945312 267.167969 157.507812 268.066406 157.03125 C 268.960938 156.550781 269.832031 156.027344 270.675781 155.464844 C 271.519531 154.898438 272.335938 154.292969 273.121094 153.648438 C 273.90625 153.003906 274.65625 152.320312 275.375 151.601562 C 276.09375 150.882812 276.777344 150.132812 277.421875 149.347656 C 278.066406 148.558594 278.667969 147.746094 279.234375 146.898438 C 279.800781 146.054688 280.320312 145.183594 280.800781 144.289062 C 281.28125 143.390625 281.714844 142.472656 282.101562 141.535156 C 282.492188 140.597656 282.835938 139.640625 283.128906 138.667969 C 283.425781 137.695312 283.671875 136.710938 283.871094 135.714844 C 284.070312 134.71875 284.21875 133.710938 284.320312 132.699219 C 284.421875 131.691406 284.472656 130.675781 284.472656 129.660156 L 284.472656 51.199219 C 284.472656 50.550781 284.441406 49.902344 284.375 49.257812 C 284.3125 48.613281 284.214844 47.972656 284.085938 47.335938 C 283.960938 46.699219 283.800781 46.070312 283.613281 45.453125 C 283.425781 44.832031 283.207031 44.222656 282.957031 43.625 C 282.710938 43.023438 282.433594 42.4375 282.125 41.867188 C 281.820312 41.296875 281.488281 40.742188 281.128906 40.203125 C 280.765625 39.664062 280.382812 39.140625 279.96875 38.640625 C 279.558594 38.140625 279.125 37.660156 278.667969 37.203125 C 278.207031 36.742188 277.726562 36.308594 277.226562 35.898438 C 276.726562 35.484375 276.207031 35.097656 275.667969 34.738281 C 275.128906 34.378906 274.574219 34.046875 274.003906 33.738281 C 273.433594 33.433594 272.847656 33.15625 272.25 32.90625 C 271.648438 32.660156 271.039062 32.441406 270.421875 32.25 C 269.800781 32.0625 269.171875 31.90625 268.539062 31.777344 C 267.902344 31.648438 267.261719 31.554688 266.617188 31.488281 C 265.972656 31.425781 265.328125 31.390625 264.679688 31.390625 Z M 35.019531 42.167969 L 264.679688 42.167969 C 265.269531 42.167969 265.855469 42.226562 266.4375 42.34375 C 267.019531 42.457031 267.582031 42.628906 268.128906 42.859375 C 268.675781 43.085938 269.199219 43.363281 269.691406 43.691406 C 270.183594 44.023438 270.636719 44.394531 271.058594 44.816406 C 271.476562 45.234375 271.851562 45.691406 272.179688 46.183594 C 272.507812 46.675781 272.785156 47.195312 273.011719 47.742188 C 273.242188 48.292969 273.414062 48.855469 273.527344 49.4375 C 273.644531 50.019531 273.703125 50.605469 273.703125 51.199219 L 273.703125 106.824219 L 25.992188 106.824219 L 25.992188 51.199219 C 25.996094 50.605469 26.050781 50.019531 26.167969 49.4375 C 26.285156 48.855469 26.457031 48.292969 26.683594 47.742188 C 26.910156 47.195312 27.1875 46.675781 27.519531 46.183594 C 27.847656 45.691406 28.222656 45.234375 28.640625 44.816406 C 29.058594 44.394531 29.515625 44.023438 30.007812 43.691406 C 30.5 43.363281 31.019531 43.085938 31.566406 42.859375 C 32.113281 42.628906 32.679688 42.457031 33.257812 42.34375 C 33.839844 42.226562 34.425781 42.167969 35.019531 42.167969 Z M 69.074219 149.929688 L 69.074219 139.152344 L 230.625 139.152344 L 230.625 149.929688 Z M 253.445312 149.929688 L 241.394531 149.929688 L 241.394531 133.765625 C 241.394531 133.410156 241.359375 133.0625 241.289062 132.714844 C 241.222656 132.367188 241.117188 132.03125 240.984375 131.703125 C 240.847656 131.375 240.683594 131.066406 240.484375 130.769531 C 240.289062 130.476562 240.066406 130.203125 239.816406 129.953125 C 239.566406 129.703125 239.292969 129.480469 239 129.285156 C 238.707031 129.089844 238.394531 128.921875 238.070312 128.785156 C 237.742188 128.652344 237.40625 128.550781 237.058594 128.480469 C 236.710938 128.410156 236.363281 128.375 236.007812 128.375 L 63.6875 128.375 C 63.335938 128.375 62.984375 128.410156 62.636719 128.480469 C 62.292969 128.550781 61.953125 128.652344 61.628906 128.785156 C 61.300781 128.921875 60.992188 129.089844 60.695312 129.285156 C 60.402344 129.480469 60.128906 129.703125 59.878906 129.953125 C 59.628906 130.203125 59.40625 130.476562 59.210938 130.769531 C 59.015625 131.066406 58.847656 131.375 58.714844 131.703125 C 58.578125 132.03125 58.476562 132.367188 58.40625 132.714844 C 58.339844 133.0625 58.304688 133.410156 58.304688 133.765625 L 58.304688 149.929688 L 46.25 149.929688 C 45.589844 149.929688 44.925781 149.894531 44.265625 149.828125 C 43.605469 149.765625 42.953125 149.664062 42.300781 149.535156 C 41.652344 149.40625 41.007812 149.246094 40.375 149.050781 C 39.738281 148.859375 39.117188 148.632812 38.503906 148.378906 C 37.890625 148.125 37.292969 147.84375 36.707031 147.527344 C 36.121094 147.214844 35.554688 146.875 35.003906 146.507812 C 34.449219 146.136719 33.917969 145.742188 33.40625 145.320312 C 32.894531 144.898438 32.402344 144.453125 31.933594 143.984375 C 31.464844 143.515625 31.019531 143.023438 30.597656 142.511719 C 30.175781 142 29.78125 141.46875 29.414062 140.914062 C 29.046875 140.363281 28.703125 139.796875 28.390625 139.210938 C 28.078125 138.625 27.796875 138.027344 27.542969 137.414062 C 27.289062 136.800781 27.0625 136.175781 26.871094 135.539062 C 26.675781 134.90625 26.515625 134.261719 26.386719 133.613281 C 26.257812 132.960938 26.160156 132.304688 26.09375 131.644531 C 26.027344 130.984375 25.996094 130.324219 25.992188 129.660156 L 25.992188 117.601562 L 273.703125 117.601562 L 273.703125 129.660156 C 273.703125 130.324219 273.667969 130.984375 273.605469 131.644531 C 273.539062 132.304688 273.441406 132.960938 273.3125 133.613281 C 273.179688 134.261719 273.019531 134.90625 272.828125 135.539062 C 272.632812 136.175781 272.410156 136.800781 272.15625 137.414062 C 271.902344 138.027344 271.617188 138.625 271.304688 139.210938 C 270.992188 139.796875 270.652344 140.363281 270.28125 140.914062 C 269.914062 141.46875 269.519531 142 269.097656 142.511719 C 268.675781 143.023438 268.234375 143.515625 267.765625 143.984375 C 267.292969 144.453125 266.804688 144.898438 266.292969 145.320312 C 265.777344 145.742188 265.246094 146.136719 264.695312 146.507812 C 264.144531 146.875 263.574219 147.214844 262.992188 147.527344 C 262.40625 147.84375 261.808594 148.125 261.195312 148.378906 C 260.582031 148.632812 259.957031 148.859375 259.324219 149.050781 C 258.6875 149.246094 258.046875 149.40625 257.394531 149.535156 C 256.746094 149.664062 256.089844 149.765625 255.429688 149.828125 C 254.769531 149.894531 254.109375 149.929688 253.445312 149.929688 Z M 253.445312 149.929688 "/></g><g clip-rule="nonzero" clip-path="url(#35fe631af3)"><path style=" stroke:none;fill-rule:nonzero;fill:#000000;fill-opacity:1;" d="M 86.84375 186.394531 L 88.902344 178.183594 C 89.003906 177.835938 89.070312 177.480469 89.101562 177.121094 C 89.128906 176.757812 89.125 176.398438 89.082031 176.039062 C 89.039062 175.679688 88.960938 175.324219 88.847656 174.980469 C 88.734375 174.636719 88.589844 174.308594 88.410156 173.992188 C 88.230469 173.679688 88.019531 173.382812 87.78125 173.113281 C 87.542969 172.839844 87.277344 172.59375 86.988281 172.375 C 86.699219 172.15625 86.394531 171.96875 86.066406 171.808594 C 85.738281 171.652344 85.398438 171.53125 85.050781 171.441406 C 84.699219 171.351562 84.339844 171.300781 83.980469 171.285156 C 83.617188 171.269531 83.257812 171.289062 82.898438 171.34375 C 82.539062 171.398438 82.191406 171.492188 81.851562 171.617188 C 81.511719 171.746094 81.191406 171.90625 80.882812 172.097656 C 80.574219 172.289062 80.289062 172.507812 80.027344 172.757812 C 79.765625 173.007812 79.527344 173.28125 79.320312 173.578125 C 79.113281 173.875 78.9375 174.191406 78.792969 174.523438 C 78.648438 174.855469 78.539062 175.199219 78.464844 175.554688 L 76.398438 183.789062 C 75.933594 185.65625 75.632812 187.550781 75.503906 189.472656 C 75.375 191.394531 75.414062 193.3125 75.625 195.226562 C 75.835938 197.140625 76.214844 199.019531 76.757812 200.867188 C 77.300781 202.714844 78.003906 204.5 78.863281 206.222656 C 80.027344 208.542969 80.75 210.996094 81.03125 213.574219 C 81.316406 216.15625 81.140625 218.707031 80.511719 221.222656 L 78.453125 229.445312 C 78.367188 229.789062 78.316406 230.136719 78.300781 230.492188 C 78.285156 230.84375 78.300781 231.195312 78.355469 231.546875 C 78.40625 231.894531 78.492188 232.238281 78.609375 232.570312 C 78.730469 232.902344 78.882812 233.21875 79.0625 233.523438 C 79.246094 233.828125 79.453125 234.109375 79.691406 234.371094 C 79.929688 234.632812 80.191406 234.871094 80.476562 235.078125 C 80.757812 235.289062 81.0625 235.472656 81.378906 235.621094 C 81.699219 235.773438 82.03125 235.890625 82.375 235.976562 C 82.804688 236.082031 83.242188 236.136719 83.6875 236.136719 C 84.289062 236.136719 84.875 236.039062 85.441406 235.84375 C 86.007812 235.648438 86.53125 235.367188 87.003906 234.996094 C 87.476562 234.625 87.875 234.1875 88.203125 233.683594 C 88.53125 233.179688 88.765625 232.636719 88.910156 232.054688 L 90.957031 223.84375 C 91.421875 221.972656 91.714844 220.074219 91.84375 218.152344 C 91.96875 216.230469 91.925781 214.3125 91.710938 212.394531 C 91.5 210.480469 91.121094 208.601562 90.574219 206.75 C 90.027344 204.902344 89.320312 203.117188 88.460938 201.394531 C 87.304688 199.074219 86.589844 196.621094 86.3125 194.039062 C 86.03125 191.460938 86.210938 188.910156 86.84375 186.394531 Z M 86.84375 186.394531 "/></g><g clip-rule="nonzero" clip-path="url(#48057fc4bb)"><path style=" stroke:none;fill-rule:nonzero;fill:#000000;fill-opacity:1;" d="M 122.253906 186.394531 L 124.3125 178.171875 C 124.398438 177.828125 124.449219 177.480469 124.464844 177.128906 C 124.484375 176.773438 124.464844 176.421875 124.414062 176.070312 C 124.359375 175.722656 124.273438 175.378906 124.15625 175.046875 C 124.035156 174.714844 123.886719 174.394531 123.703125 174.09375 C 123.519531 173.789062 123.308594 173.503906 123.074219 173.242188 C 122.835938 172.980469 122.574219 172.746094 122.289062 172.535156 C 122.003906 172.324219 121.703125 172.144531 121.382812 171.992188 C 121.0625 171.839844 120.730469 171.722656 120.386719 171.636719 C 120.042969 171.550781 119.695312 171.5 119.34375 171.484375 C 118.988281 171.464844 118.636719 171.484375 118.285156 171.535156 C 117.9375 171.589844 117.59375 171.675781 117.261719 171.792969 C 116.929688 171.914062 116.613281 172.066406 116.308594 172.246094 C 116.003906 172.429688 115.722656 172.640625 115.460938 172.878906 C 115.199219 173.117188 114.960938 173.378906 114.75 173.664062 C 114.542969 173.945312 114.359375 174.25 114.210938 174.570312 C 114.058594 174.890625 113.941406 175.222656 113.855469 175.566406 L 111.808594 183.777344 C 111.34375 185.644531 111.042969 187.542969 110.914062 189.464844 C 110.785156 191.386719 110.824219 193.304688 111.035156 195.21875 C 111.242188 197.132812 111.617188 199.015625 112.160156 200.863281 C 112.703125 202.714844 113.40625 204.5 114.265625 206.222656 C 115.425781 208.542969 116.148438 210.996094 116.433594 213.574219 C 116.71875 216.15625 116.550781 218.707031 115.921875 221.222656 L 113.867188 229.4375 C 113.78125 229.777344 113.726562 230.128906 113.710938 230.480469 C 113.691406 230.832031 113.707031 231.1875 113.761719 231.535156 C 113.8125 231.886719 113.898438 232.226562 114.015625 232.5625 C 114.132812 232.894531 114.285156 233.210938 114.464844 233.515625 C 114.648438 233.820312 114.855469 234.101562 115.09375 234.367188 C 115.332031 234.628906 115.59375 234.863281 115.875 235.074219 C 116.160156 235.285156 116.460938 235.46875 116.78125 235.621094 C 117.101562 235.773438 117.433594 235.890625 117.777344 235.976562 C 118.207031 236.082031 118.644531 236.136719 119.089844 236.136719 C 119.6875 236.136719 120.269531 236.039062 120.835938 235.84375 C 121.402344 235.648438 121.921875 235.367188 122.394531 234.996094 C 122.867188 234.628906 123.265625 234.191406 123.59375 233.691406 C 123.917969 233.1875 124.15625 232.644531 124.300781 232.066406 L 126.371094 223.832031 C 126.835938 221.964844 127.132812 220.066406 127.261719 218.148438 C 127.390625 216.226562 127.351562 214.308594 127.140625 212.394531 C 126.929688 210.480469 126.554688 208.597656 126.007812 206.75 C 125.464844 204.902344 124.765625 203.117188 123.902344 201.394531 C 122.742188 199.074219 122.019531 196.625 121.734375 194.042969 C 121.453125 191.464844 121.625 188.914062 122.253906 186.394531 Z M 122.253906 186.394531 "/></g><g clip-rule="nonzero" clip-path="url(#4a8ac333dd)"><path style=" stroke:none;fill-rule:nonzero;fill:#000000;fill-opacity:1;" d="M 154.566406 186.394531 L 156.621094 178.171875 C 156.707031 177.828125 156.757812 177.480469 156.777344 177.128906 C 156.792969 176.773438 156.777344 176.421875 156.722656 176.070312 C 156.671875 175.722656 156.585938 175.378906 156.464844 175.046875 C 156.347656 174.714844 156.195312 174.394531 156.011719 174.09375 C 155.832031 173.789062 155.621094 173.503906 155.382812 173.242188 C 155.144531 172.980469 154.882812 172.746094 154.597656 172.535156 C 154.316406 172.324219 154.011719 172.144531 153.691406 171.992188 C 153.371094 171.839844 153.039062 171.722656 152.695312 171.636719 C 152.355469 171.550781 152.003906 171.5 151.652344 171.484375 C 151.296875 171.464844 150.945312 171.484375 150.597656 171.535156 C 150.246094 171.589844 149.90625 171.675781 149.574219 171.792969 C 149.238281 171.914062 148.921875 172.066406 148.617188 172.246094 C 148.316406 172.429688 148.03125 172.640625 147.769531 172.878906 C 147.507812 173.117188 147.273438 173.378906 147.0625 173.664062 C 146.851562 173.945312 146.671875 174.25 146.519531 174.570312 C 146.367188 174.890625 146.25 175.222656 146.164062 175.566406 L 144.117188 183.777344 C 143.652344 185.644531 143.355469 187.542969 143.226562 189.464844 C 143.09375 191.386719 143.132812 193.304688 143.34375 195.21875 C 143.554688 197.132812 143.929688 199.015625 144.472656 200.863281 C 145.015625 202.714844 145.714844 204.5 146.574219 206.222656 C 147.738281 208.542969 148.460938 210.996094 148.746094 213.574219 C 149.03125 216.15625 148.859375 218.707031 148.234375 221.222656 L 146.175781 229.4375 C 146.089844 229.777344 146.039062 230.128906 146.019531 230.480469 C 146.003906 230.832031 146.019531 231.1875 146.070312 231.535156 C 146.121094 231.886719 146.207031 232.226562 146.324219 232.5625 C 146.445312 232.894531 146.59375 233.210938 146.777344 233.515625 C 146.957031 233.820312 147.167969 234.101562 147.40625 234.367188 C 147.640625 234.628906 147.902344 234.863281 148.1875 235.074219 C 148.46875 235.285156 148.773438 235.46875 149.089844 235.621094 C 149.410156 235.773438 149.742188 235.890625 150.085938 235.976562 C 150.515625 236.082031 150.953125 236.136719 151.398438 236.136719 C 152 236.136719 152.582031 236.039062 153.148438 235.84375 C 153.714844 235.648438 154.230469 235.367188 154.703125 234.996094 C 155.175781 234.628906 155.574219 234.191406 155.902344 233.691406 C 156.230469 233.1875 156.464844 232.644531 156.613281 232.066406 L 158.679688 223.832031 C 159.144531 221.964844 159.441406 220.066406 159.570312 218.148438 C 159.703125 216.226562 159.660156 214.308594 159.449219 212.394531 C 159.242188 210.480469 158.863281 208.597656 158.320312 206.75 C 157.777344 204.902344 157.074219 203.117188 156.214844 201.394531 C 155.050781 199.074219 154.328125 196.625 154.042969 194.042969 C 153.761719 191.464844 153.933594 188.914062 154.566406 186.394531 Z M 154.566406 186.394531 "/></g><g clip-rule="nonzero" clip-path="url(#42e0f71e30)"><path style=" stroke:none;fill-rule:nonzero;fill:#000000;fill-opacity:1;" d="M 186.875 186.394531 L 188.933594 178.171875 C 189.019531 177.828125 189.070312 177.480469 189.085938 177.128906 C 189.101562 176.773438 189.085938 176.421875 189.03125 176.074219 C 188.980469 175.722656 188.894531 175.382812 188.773438 175.050781 C 188.652344 174.714844 188.503906 174.398438 188.320312 174.09375 C 188.136719 173.792969 187.925781 173.507812 187.691406 173.246094 C 187.453125 172.984375 187.191406 172.75 186.90625 172.539062 C 186.621094 172.328125 186.320312 172.148438 186 171.996094 C 185.679688 171.847656 185.347656 171.730469 185.003906 171.644531 C 184.664062 171.558594 184.316406 171.507812 183.960938 171.488281 C 183.609375 171.472656 183.257812 171.488281 182.90625 171.542969 C 182.558594 171.59375 182.214844 171.679688 181.882812 171.800781 C 181.550781 171.917969 181.234375 172.070312 180.929688 172.253906 C 180.625 172.433594 180.34375 172.644531 180.082031 172.882812 C 179.820312 173.121094 179.582031 173.378906 179.375 173.664062 C 179.164062 173.949219 178.980469 174.25 178.832031 174.570312 C 178.679688 174.890625 178.5625 175.222656 178.476562 175.566406 L 176.429688 183.777344 C 175.964844 185.644531 175.664062 187.542969 175.535156 189.464844 C 175.40625 191.386719 175.445312 193.304688 175.652344 195.21875 C 175.863281 197.132812 176.238281 199.015625 176.78125 200.863281 C 177.324219 202.714844 178.027344 204.5 178.882812 206.222656 C 180.046875 208.542969 180.769531 210.996094 181.054688 213.574219 C 181.339844 216.15625 181.167969 218.707031 180.542969 221.222656 L 178.484375 229.4375 C 178.398438 229.777344 178.347656 230.128906 178.328125 230.480469 C 178.3125 230.832031 178.328125 231.1875 178.378906 231.535156 C 178.433594 231.886719 178.515625 232.226562 178.636719 232.5625 C 178.753906 232.894531 178.90625 233.210938 179.085938 233.515625 C 179.269531 233.820312 179.476562 234.101562 179.714844 234.367188 C 179.953125 234.628906 180.210938 234.863281 180.496094 235.074219 C 180.78125 235.285156 181.082031 235.46875 181.402344 235.621094 C 181.722656 235.773438 182.050781 235.890625 182.394531 235.976562 C 182.828125 236.082031 183.265625 236.136719 183.710938 236.136719 C 184.308594 236.136719 184.890625 236.039062 185.457031 235.84375 C 186.023438 235.648438 186.542969 235.367188 187.015625 234.996094 C 187.488281 234.628906 187.886719 234.191406 188.210938 233.691406 C 188.539062 233.1875 188.777344 232.644531 188.921875 232.066406 L 190.988281 223.832031 C 191.457031 221.964844 191.753906 220.066406 191.882812 218.148438 C 192.011719 216.226562 191.972656 214.308594 191.761719 212.394531 C 191.550781 210.480469 191.171875 208.597656 190.628906 206.75 C 190.085938 204.902344 189.382812 203.117188 188.523438 201.394531 C 187.359375 199.074219 186.636719 196.625 186.355469 194.042969 C 186.070312 191.464844 186.246094 188.914062 186.875 186.394531 Z M 186.875 186.394531 "/></g><g clip-rule="nonzero" clip-path="url(#b00c38767e)"><path style=" stroke:none;fill-rule:nonzero;fill:#000000;fill-opacity:1;" d="M 219.1875 186.394531 L 221.242188 178.171875 C 221.328125 177.828125 221.378906 177.480469 221.394531 177.128906 C 221.410156 176.773438 221.394531 176.421875 221.339844 176.074219 C 221.289062 175.722656 221.203125 175.382812 221.082031 175.050781 C 220.964844 174.714844 220.8125 174.398438 220.628906 174.09375 C 220.449219 173.792969 220.238281 173.507812 220 173.246094 C 219.761719 172.984375 219.5 172.75 219.214844 172.539062 C 218.933594 172.328125 218.628906 172.148438 218.308594 171.996094 C 217.992188 171.847656 217.660156 171.730469 217.316406 171.644531 C 216.972656 171.558594 216.625 171.507812 216.269531 171.488281 C 215.917969 171.472656 215.566406 171.488281 215.21875 171.542969 C 214.867188 171.59375 214.527344 171.679688 214.191406 171.800781 C 213.859375 171.917969 213.542969 172.070312 213.238281 172.253906 C 212.9375 172.433594 212.652344 172.644531 212.390625 172.882812 C 212.128906 173.121094 211.894531 173.378906 211.683594 173.664062 C 211.472656 173.949219 211.292969 174.25 211.140625 174.570312 C 210.988281 174.890625 210.871094 175.222656 210.785156 175.566406 L 208.738281 183.777344 C 208.273438 185.644531 207.976562 187.542969 207.84375 189.464844 C 207.714844 191.386719 207.753906 193.304688 207.964844 195.21875 C 208.171875 197.132812 208.550781 199.015625 209.09375 200.863281 C 209.632812 202.714844 210.335938 204.5 211.195312 206.222656 C 212.355469 208.542969 213.078125 210.996094 213.367188 213.574219 C 213.652344 216.15625 213.480469 218.707031 212.851562 221.222656 L 210.796875 229.4375 C 210.710938 229.777344 210.65625 230.128906 210.640625 230.480469 C 210.621094 230.832031 210.640625 231.1875 210.691406 231.535156 C 210.742188 231.886719 210.828125 232.226562 210.945312 232.5625 C 211.066406 232.894531 211.214844 233.210938 211.394531 233.515625 C 211.578125 233.820312 211.789062 234.101562 212.023438 234.367188 C 212.261719 234.628906 212.523438 234.863281 212.804688 235.074219 C 213.089844 235.285156 213.390625 235.46875 213.710938 235.621094 C 214.03125 235.773438 214.363281 235.890625 214.707031 235.976562 C 215.136719 236.082031 215.574219 236.136719 216.019531 236.136719 C 216.617188 236.136719 217.199219 236.039062 217.765625 235.84375 C 218.332031 235.648438 218.851562 235.367188 219.324219 234.996094 C 219.796875 234.628906 220.195312 234.191406 220.523438 233.691406 C 220.847656 233.1875 221.085938 232.644531 221.230469 232.066406 L 223.300781 223.832031 C 223.765625 221.964844 224.0625 220.066406 224.191406 218.148438 C 224.320312 216.226562 224.28125 214.308594 224.070312 212.394531 C 223.859375 210.480469 223.484375 208.597656 222.941406 206.75 C 222.394531 204.902344 221.695312 203.117188 220.832031 201.394531 C 219.671875 199.074219 218.949219 196.625 218.664062 194.042969 C 218.382812 191.464844 218.554688 188.914062 219.1875 186.394531 Z M 219.1875 186.394531 "/></g><path style=" stroke:none;fill-rule:nonzero;fill:#000000;fill-opacity:1;" d="M 63.6875 85.273438 C 63.6875 85.625 63.652344 85.976562 63.585938 86.324219 C 63.515625 86.671875 63.414062 87.007812 63.277344 87.332031 C 63.144531 87.660156 62.976562 87.972656 62.78125 88.265625 C 62.585938 88.558594 62.359375 88.832031 62.109375 89.082031 C 61.859375 89.332031 61.589844 89.554688 61.296875 89.753906 C 61 89.949219 60.691406 90.113281 60.363281 90.25 C 60.039062 90.386719 59.699219 90.488281 59.355469 90.554688 C 59.007812 90.625 58.65625 90.660156 58.304688 90.660156 C 57.949219 90.660156 57.601562 90.625 57.253906 90.554688 C 56.90625 90.488281 56.570312 90.386719 56.242188 90.25 C 55.917969 90.113281 55.605469 89.949219 55.3125 89.753906 C 55.019531 89.554688 54.746094 89.332031 54.496094 89.082031 C 54.246094 88.832031 54.023438 88.558594 53.824219 88.265625 C 53.628906 87.972656 53.464844 87.660156 53.328125 87.332031 C 53.191406 87.007812 53.089844 86.671875 53.023438 86.324219 C 52.953125 85.976562 52.917969 85.625 52.917969 85.273438 C 52.917969 84.917969 52.953125 84.566406 53.023438 84.222656 C 53.089844 83.875 53.191406 83.535156 53.328125 83.210938 C 53.464844 82.882812 53.628906 82.574219 53.824219 82.277344 C 54.023438 81.984375 54.246094 81.710938 54.496094 81.460938 C 54.746094 81.210938 55.019531 80.988281 55.3125 80.792969 C 55.605469 80.59375 55.917969 80.429688 56.242188 80.292969 C 56.570312 80.160156 56.90625 80.054688 57.253906 79.988281 C 57.601562 79.917969 57.949219 79.882812 58.304688 79.882812 C 58.65625 79.882812 59.007812 79.917969 59.355469 79.988281 C 59.699219 80.054688 60.039062 80.160156 60.363281 80.292969 C 60.691406 80.429688 61 80.59375 61.296875 80.792969 C 61.589844 80.988281 61.859375 81.210938 62.109375 81.460938 C 62.359375 81.710938 62.585938 81.984375 62.78125 82.277344 C 62.976562 82.574219 63.144531 82.882812 63.277344 83.210938 C 63.414062 83.535156 63.515625 83.875 63.585938 84.222656 C 63.652344 84.566406 63.6875 84.917969 63.6875 85.273438 Z M 63.6875 85.273438 "/><path style=" stroke:none;fill-rule:nonzero;fill:#000000;fill-opacity:1;" d="M 85.230469 85.273438 C 85.230469 85.625 85.195312 85.976562 85.125 86.324219 C 85.054688 86.671875 84.953125 87.007812 84.820312 87.332031 C 84.683594 87.660156 84.515625 87.972656 84.320312 88.265625 C 84.125 88.558594 83.902344 88.832031 83.652344 89.082031 C 83.402344 89.332031 83.128906 89.554688 82.835938 89.753906 C 82.542969 89.949219 82.230469 90.113281 81.902344 90.25 C 81.578125 90.386719 81.242188 90.488281 80.894531 90.554688 C 80.546875 90.625 80.195312 90.660156 79.84375 90.660156 C 79.488281 90.660156 79.140625 90.625 78.792969 90.554688 C 78.445312 90.488281 78.109375 90.386719 77.78125 90.25 C 77.457031 90.113281 77.144531 89.949219 76.851562 89.753906 C 76.558594 89.554688 76.285156 89.332031 76.035156 89.082031 C 75.785156 88.832031 75.5625 88.558594 75.367188 88.265625 C 75.167969 87.972656 75.003906 87.660156 74.867188 87.332031 C 74.734375 87.007812 74.632812 86.671875 74.5625 86.324219 C 74.492188 85.976562 74.457031 85.625 74.457031 85.273438 C 74.457031 84.917969 74.492188 84.566406 74.5625 84.222656 C 74.632812 83.875 74.734375 83.535156 74.867188 83.210938 C 75.003906 82.882812 75.167969 82.574219 75.367188 82.277344 C 75.5625 81.984375 75.785156 81.710938 76.035156 81.460938 C 76.285156 81.210938 76.558594 80.988281 76.851562 80.792969 C 77.144531 80.59375 77.457031 80.429688 77.78125 80.292969 C 78.109375 80.160156 78.445312 80.054688 78.792969 79.988281 C 79.140625 79.917969 79.488281 79.882812 79.84375 79.882812 C 80.195312 79.882812 80.546875 79.917969 80.894531 79.988281 C 81.242188 80.054688 81.578125 80.160156 81.902344 80.292969 C 82.230469 80.429688 82.542969 80.59375 82.835938 80.792969 C 83.128906 80.988281 83.402344 81.210938 83.652344 81.460938 C 83.902344 81.710938 84.125 81.984375 84.320312 82.277344 C 84.515625 82.574219 84.683594 82.882812 84.820312 83.210938 C 84.953125 83.535156 85.054688 83.875 85.125 84.222656 C 85.195312 84.566406 85.230469 84.917969 85.230469 85.273438 Z M 85.230469 85.273438 "/><path style=" stroke:none;fill-rule:nonzero;fill:#000000;fill-opacity:1;" d="M 106.769531 85.273438 C 106.769531 85.625 106.734375 85.976562 106.664062 86.324219 C 106.597656 86.671875 106.492188 87.007812 106.359375 87.332031 C 106.222656 87.660156 106.058594 87.972656 105.859375 88.265625 C 105.664062 88.558594 105.441406 88.832031 105.191406 89.082031 C 104.941406 89.332031 104.667969 89.554688 104.375 89.753906 C 104.082031 89.949219 103.769531 90.113281 103.445312 90.25 C 103.117188 90.386719 102.78125 90.488281 102.433594 90.554688 C 102.085938 90.625 101.738281 90.660156 101.382812 90.660156 C 101.03125 90.660156 100.679688 90.625 100.332031 90.554688 C 99.984375 90.488281 99.648438 90.386719 99.324219 90.25 C 98.996094 90.113281 98.6875 89.949219 98.390625 89.753906 C 98.097656 89.554688 97.824219 89.332031 97.574219 89.082031 C 97.324219 88.832031 97.101562 88.558594 96.90625 88.265625 C 96.710938 87.972656 96.542969 87.660156 96.410156 87.332031 C 96.273438 87.007812 96.171875 86.671875 96.101562 86.324219 C 96.03125 85.976562 96 85.625 96 85.273438 C 96 84.917969 96.03125 84.566406 96.101562 84.222656 C 96.171875 83.875 96.273438 83.535156 96.410156 83.210938 C 96.542969 82.882812 96.710938 82.574219 96.90625 82.277344 C 97.101562 81.984375 97.324219 81.710938 97.574219 81.460938 C 97.824219 81.210938 98.097656 80.988281 98.390625 80.792969 C 98.6875 80.59375 98.996094 80.429688 99.324219 80.292969 C 99.648438 80.160156 99.984375 80.054688 100.332031 79.988281 C 100.679688 79.917969 101.03125 79.882812 101.382812 79.882812 C 101.738281 79.882812 102.085938 79.917969 102.433594 79.988281 C 102.78125 80.054688 103.117188 80.160156 103.445312 80.292969 C 103.769531 80.429688 104.082031 80.59375 104.375 80.792969 C 104.667969 80.988281 104.941406 81.210938 105.191406 81.460938 C 105.441406 81.710938 105.664062 81.984375 105.859375 82.277344 C 106.058594 82.574219 106.222656 82.882812 106.359375 83.210938 C 106.492188 83.535156 106.597656 83.875 106.664062 84.222656 C 106.734375 84.566406 106.769531 84.917969 106.769531 85.273438 Z M 106.769531 85.273438 "/></g></svg>