<svg xmlns="http://www.w3.org/2000/svg" xmlns:xlink="http://www.w3.org/1999/xlink" width="400" zoomAndPan="magnify" viewBox="0 0 300 270" height="350" preserveAspectRatio="xMidYMid meet" version="1.2"><defs><clipPath id="e6d53afe5f"><path d="M 55.417969 8.015625 L 244.417969 8.015625 L 244.417969 254.765625 L 55.417969 254.765625 Z M 55.417969 8.015625 "/></clipPath></defs><g id="ffc475bb17"><path style=" stroke:none;fill-rule:nonzero;fill:#000000;fill-opacity:1;" d="M 88.355469 32.890625 L 137.605469 32.890625 L 137.605469 57.367188 L 88.355469 57.367188 Z M 84.25 65.59375 L 141.710938 65.59375 C 143.976562 65.59375 145.816406 63.75 145.816406 61.480469 L 145.816406 28.777344 C 145.816406 26.503906 143.976562 24.664062 141.710938 24.664062 L 84.25 24.664062 C 81.984375 24.664062 80.144531 26.503906 80.144531 28.777344 L 80.144531 61.480469 C 80.144531 63.75 81.984375 65.59375 84.25 65.59375 "/><path style=" stroke:none;fill-rule:nonzero;fill:#000000;fill-opacity:1;" d="M 112.980469 139.519531 C 110.71875 139.519531 108.875 137.671875 108.875 135.40625 C 108.875 133.140625 110.71875 131.292969 112.980469 131.292969 C 115.242188 131.292969 117.085938 133.140625 117.085938 135.40625 C 117.085938 137.671875 115.242188 139.519531 112.980469 139.519531 Z M 112.980469 123.070312 C 106.191406 123.070312 100.667969 128.601562 100.667969 135.40625 C 100.667969 142.210938 106.191406 147.742188 112.980469 147.742188 C 119.769531 147.742188 125.292969 142.210938 125.292969 135.40625 C 125.292969 128.601562 119.769531 123.070312 112.980469 123.070312 "/><path style=" stroke:none;fill-rule:nonzero;fill:#000000;fill-opacity:1;" d="M 112.980469 106.617188 C 110.71875 106.617188 108.875 104.773438 108.875 102.507812 C 108.875 100.238281 110.71875 98.394531 112.980469 98.394531 C 115.242188 98.394531 117.085938 100.238281 117.085938 102.507812 C 117.085938 104.773438 115.242188 106.617188 112.980469 106.617188 Z M 112.980469 90.167969 C 106.191406 90.167969 100.667969 95.703125 100.667969 102.507812 C 100.667969 109.308594 106.191406 114.84375 112.980469 114.84375 C 119.769531 114.84375 125.292969 109.308594 125.292969 102.507812 C 125.292969 95.703125 119.769531 90.167969 112.980469 90.167969 "/><path style=" stroke:none;fill-rule:nonzero;fill:#000000;fill-opacity:1;" d="M 133.5 135.308594 C 133.5 140.816406 131.359375 145.992188 127.460938 149.875 C 123.585938 153.742188 118.449219 155.871094 112.980469 155.871094 C 112.953125 155.871094 112.925781 155.871094 112.898438 155.871094 C 101.628906 155.828125 92.457031 146.601562 92.457031 135.308594 L 92.457031 102.605469 C 92.457031 97.097656 94.601562 91.925781 98.5 88.035156 C 102.371094 84.167969 107.511719 82.042969 112.976562 82.042969 C 113.007812 82.042969 113.035156 82.042969 113.0625 82.042969 C 124.332031 82.089844 133.5 91.3125 133.5 102.605469 Z M 113.09375 73.816406 C 113.054688 73.816406 113.015625 73.816406 112.976562 73.816406 C 105.324219 73.816406 98.128906 76.796875 92.707031 82.210938 C 87.253906 87.652344 84.25 94.894531 84.25 102.605469 L 84.25 135.308594 C 84.25 151.121094 97.089844 164.035156 112.867188 164.09375 C 112.90625 164.09375 112.945312 164.09375 112.984375 164.09375 C 120.636719 164.09375 127.832031 161.117188 133.253906 155.703125 C 138.707031 150.265625 141.710938 143.019531 141.710938 135.308594 L 141.710938 102.605469 C 141.710938 86.792969 128.871094 73.878906 113.09375 73.816406 "/><path style=" stroke:none;fill-rule:nonzero;fill:#000000;fill-opacity:1;" d="M 211.484375 46.570312 C 212.902344 46.570312 214.050781 45.421875 214.050781 44 C 214.050781 42.582031 212.902344 41.429688 211.484375 41.429688 C 210.066406 41.429688 208.917969 42.582031 208.917969 44 C 208.917969 45.421875 210.066406 46.570312 211.484375 46.570312 "/><path style=" stroke:none;fill-rule:nonzero;fill:#000000;fill-opacity:1;" d="M 211.484375 55.824219 C 212.902344 55.824219 214.050781 54.675781 214.050781 53.253906 C 214.050781 51.835938 212.902344 50.683594 211.484375 50.683594 C 210.066406 50.683594 208.917969 51.835938 208.917969 53.253906 C 208.917969 54.675781 210.066406 55.824219 211.484375 55.824219 "/><path style=" stroke:none;fill-rule:nonzero;fill:#000000;fill-opacity:1;" d="M 211.484375 64.050781 C 212.902344 64.050781 214.050781 62.898438 214.050781 61.480469 C 214.050781 60.058594 212.902344 58.910156 211.484375 58.910156 C 210.066406 58.910156 208.917969 60.058594 208.917969 61.480469 C 208.917969 62.898438 210.066406 64.050781 211.484375 64.050781 "/><path style=" stroke:none;fill-rule:nonzero;fill:#000000;fill-opacity:1;" d="M 214.050781 69.703125 C 214.050781 68.285156 212.902344 67.132812 211.484375 67.132812 C 210.066406 67.132812 208.917969 68.285156 208.917969 69.703125 C 208.917969 71.125 210.066406 72.273438 211.484375 72.273438 C 212.902344 72.273438 214.050781 71.125 214.050781 69.703125 "/><path style=" stroke:none;fill-rule:nonzero;fill:#000000;fill-opacity:1;" d="M 201.734375 45.542969 C 200.320312 45.542969 199.171875 46.695312 199.171875 48.113281 C 199.171875 49.535156 200.320312 50.683594 201.734375 50.683594 C 203.152344 50.683594 204.300781 49.535156 204.300781 48.113281 C 204.300781 46.695312 203.152344 45.542969 201.734375 45.542969 "/><path style=" stroke:none;fill-rule:nonzero;fill:#000000;fill-opacity:1;" d="M 201.734375 53.769531 C 200.320312 53.769531 199.171875 54.917969 199.171875 56.339844 C 199.171875 57.757812 200.320312 58.910156 201.734375 58.910156 C 203.152344 58.910156 204.300781 57.757812 204.300781 56.339844 C 204.300781 54.917969 203.152344 53.769531 201.734375 53.769531 "/><path style=" stroke:none;fill-rule:nonzero;fill:#000000;fill-opacity:1;" d="M 201.734375 61.992188 C 200.320312 61.992188 199.171875 63.144531 199.171875 64.5625 C 199.171875 65.984375 200.320312 67.132812 201.734375 67.132812 C 203.152344 67.132812 204.300781 65.984375 204.300781 64.5625 C 204.300781 63.144531 203.152344 61.992188 201.734375 61.992188 "/><path style=" stroke:none;fill-rule:nonzero;fill:#000000;fill-opacity:1;" d="M 221.230469 50.683594 C 222.648438 50.683594 223.796875 49.535156 223.796875 48.113281 C 223.796875 46.695312 222.648438 45.542969 221.230469 45.542969 C 219.816406 45.542969 218.667969 46.695312 218.667969 48.113281 C 218.667969 49.535156 219.816406 50.683594 221.230469 50.683594 "/><path style=" stroke:none;fill-rule:nonzero;fill:#000000;fill-opacity:1;" d="M 221.230469 58.910156 C 222.648438 58.910156 223.796875 57.757812 223.796875 56.339844 C 223.796875 54.917969 222.648438 53.769531 221.230469 53.769531 C 219.816406 53.769531 218.667969 54.917969 218.667969 56.339844 C 218.667969 57.757812 219.816406 58.910156 221.230469 58.910156 "/><path style=" stroke:none;fill-rule:nonzero;fill:#000000;fill-opacity:1;" d="M 221.230469 67.132812 C 222.648438 67.132812 223.796875 65.984375 223.796875 64.5625 C 223.796875 63.144531 222.648438 61.992188 221.230469 61.992188 C 219.816406 61.992188 218.667969 63.144531 218.667969 64.5625 C 218.667969 65.984375 219.816406 67.132812 221.230469 67.132812 "/><g clip-rule="nonzero" clip-path="url(#e6d53afe5f)"><path style=" stroke:none;fill-rule:nonzero;fill:#000000;fill-opacity:1;" d="M 145.816406 184.65625 L 145.816406 193.078125 L 137.605469 193.078125 L 137.605469 184.65625 Z M 92.457031 193.078125 L 84.25 193.078125 L 84.25 184.65625 L 92.457031 184.65625 Z M 92.457031 246.542969 L 84.25 246.542969 L 84.25 201.304688 L 92.457031 201.304688 Z M 63.730469 164.09375 L 63.730469 28.578125 C 63.730469 21.777344 69.25 16.242188 76.042969 16.242188 L 149.917969 16.242188 C 156.707031 16.242188 162.230469 21.777344 162.230469 28.578125 L 162.230469 164.09375 C 162.230469 170.898438 156.707031 176.433594 149.917969 176.433594 L 76.042969 176.433594 C 69.25 176.433594 63.730469 170.898438 63.730469 164.09375 Z M 176.597656 238.316406 C 193.570312 238.316406 207.378906 224.480469 207.378906 207.472656 L 207.378906 147.84375 L 215.589844 147.84375 L 215.589844 207.472656 C 215.589844 229.015625 198.097656 246.542969 176.597656 246.542969 C 155.097656 246.542969 137.605469 229.015625 137.605469 207.472656 L 137.605469 201.304688 L 145.816406 201.304688 L 145.816406 207.472656 C 145.816406 224.480469 159.621094 238.316406 176.597656 238.316406 Z M 211.484375 90.265625 C 213.914062 90.265625 216.28125 89.996094 218.5625 89.488281 L 215.902344 123.160156 L 207.066406 123.144531 L 204.40625 89.488281 C 206.6875 89.996094 209.054688 90.265625 211.484375 90.265625 Z M 186.859375 57.367188 C 186.859375 43.761719 197.902344 32.691406 211.484375 32.691406 C 225.0625 32.691406 236.109375 43.761719 236.109375 57.367188 C 236.109375 70.972656 225.0625 82.042969 211.484375 82.042969 C 197.902344 82.042969 186.859375 70.972656 186.859375 57.367188 Z M 215.589844 131.390625 L 215.589844 139.609375 L 207.378906 139.59375 L 207.378906 131.390625 Z M 129.398438 207.472656 C 129.398438 233.550781 150.570312 254.765625 176.597656 254.765625 C 202.625 254.765625 223.796875 233.550781 223.796875 207.472656 L 223.796875 127.441406 L 227.046875 86.328125 C 237.320312 80.761719 244.316406 69.871094 244.316406 57.367188 C 244.316406 39.226562 229.589844 24.46875 211.484375 24.46875 C 193.378906 24.46875 178.648438 39.226562 178.648438 57.367188 C 178.648438 69.871094 185.644531 80.761719 195.921875 86.328125 L 199.171875 127.441406 L 199.171875 207.472656 C 199.171875 219.945312 189.042969 230.09375 176.597656 230.09375 C 164.148438 230.09375 154.023438 219.945312 154.023438 207.472656 L 154.023438 184.246094 C 163.378906 182.335938 170.441406 174.027344 170.441406 164.09375 L 170.441406 28.578125 C 170.441406 17.242188 161.234375 8.015625 149.917969 8.015625 L 76.042969 8.015625 C 64.726562 8.015625 55.519531 17.242188 55.519531 28.578125 L 55.519531 164.09375 C 55.519531 175.433594 64.726562 184.65625 76.042969 184.65625 L 76.042969 250.65625 C 76.042969 252.925781 77.878906 254.765625 80.144531 254.765625 L 96.5625 254.765625 C 98.828125 254.765625 100.667969 252.925781 100.667969 250.65625 L 100.667969 184.65625 L 129.398438 184.65625 L 129.398438 207.472656 "/></g></g></svg>