<svg xmlns="http://www.w3.org/2000/svg" xmlns:xlink="http://www.w3.org/1999/xlink" width="400" zoomAndPan="magnify" viewBox="0 0 300 270" height="350" preserveAspectRatio="xMidYMid meet" version="1.2"><defs><clipPath id="626e6e4254"><path d="M 33.820312 15.070312 L 266.320312 15.070312 L 266.320312 247.570312 L 33.820312 247.570312 Z M 33.820312 15.070312 "/></clipPath></defs><g id="c8a095faac"><path style=" stroke:none;fill-rule:nonzero;fill:#000000;fill-opacity:1;" d="M 168.644531 208.695312 C 169.070312 207.46875 169.355469 206.183594 169.355469 204.820312 L 169.355469 179.53125 C 169.355469 174.855469 167.511719 170.46875 164.167969 167.171875 C 162.488281 165.507812 161.476562 163.253906 161.339844 160.832031 L 160.691406 148.820312 C 161.929688 147.429688 162.445312 145.480469 162.082031 143.574219 L 161.308594 139.761719 C 160.824219 137.070312 158.601562 135.117188 156.03125 135.117188 L 143.988281 135.117188 C 141.417969 135.117188 139.210938 137.070312 138.726562 139.699219 L 137.984375 143.421875 C 137.832031 144.027344 137.832031 144.527344 137.832031 144.796875 C 137.832031 146.28125 138.363281 147.6875 139.269531 148.746094 C 139.269531 148.746094 139.269531 148.761719 139.269531 148.761719 L 138.664062 160.800781 C 138.515625 163.253906 137.5 165.507812 135.820312 167.171875 C 132.476562 170.46875 130.632812 174.855469 130.632812 179.53125 L 130.632812 204.820312 C 130.632812 206.183594 130.921875 207.484375 131.34375 208.695312 L 114.433594 208.695312 C 114.855469 207.484375 115.144531 206.183594 115.144531 204.820312 L 115.144531 179.53125 C 115.144531 174.855469 113.296875 170.46875 109.953125 167.171875 C 108.273438 165.507812 107.261719 163.253906 107.125 160.832031 L 106.476562 148.820312 C 107.714844 147.429688 108.230469 145.480469 107.867188 143.574219 L 107.09375 139.761719 C 106.609375 137.070312 104.386719 135.117188 101.816406 135.117188 L 89.773438 135.117188 C 87.203125 135.117188 84.996094 137.070312 84.511719 139.699219 L 83.769531 143.421875 C 83.617188 144.027344 83.617188 144.527344 83.617188 144.796875 C 83.617188 146.28125 84.148438 147.6875 85.054688 148.746094 C 85.054688 148.746094 85.054688 148.761719 85.054688 148.761719 L 84.449219 160.800781 C 84.300781 163.253906 83.285156 165.507812 81.605469 167.171875 C 78.261719 170.46875 76.417969 174.855469 76.417969 179.53125 L 76.417969 204.820312 C 76.417969 206.183594 76.707031 207.484375 77.128906 208.695312 L 57.054688 208.695312 L 57.054688 127.371094 L 188.71875 127.371094 L 188.71875 208.695312 Z M 146.394531 161.226562 L 147.015625 149.15625 C 147.105469 147.292969 146.652344 145.628906 145.699219 144.328125 L 145.984375 142.863281 L 154.035156 142.863281 L 154.335938 144.390625 C 153.398438 145.75 152.929688 147.398438 153.003906 149.125 L 153.59375 161.257812 C 153.851562 165.613281 155.683594 169.683594 158.738281 172.691406 C 160.582031 174.507812 161.613281 176.941406 161.613281 179.53125 L 161.613281 204.820312 C 161.613281 206.953125 159.871094 208.695312 157.738281 208.695312 L 142.25 208.695312 C 140.117188 208.695312 138.378906 206.953125 138.378906 204.820312 L 138.378906 179.53125 C 138.378906 176.941406 139.40625 174.507812 141.25 172.691406 C 144.308594 169.683594 146.136719 165.613281 146.394531 161.226562 Z M 92.179688 161.226562 L 92.800781 149.15625 C 92.890625 147.292969 92.4375 145.628906 91.484375 144.328125 L 91.773438 142.863281 L 99.820312 142.863281 L 100.121094 144.390625 C 99.183594 145.75 98.714844 147.398438 98.789062 149.125 L 99.378906 161.257812 C 99.636719 165.613281 101.46875 169.683594 104.523438 172.691406 C 106.371094 174.507812 107.398438 176.941406 107.398438 179.53125 L 107.398438 204.820312 C 107.398438 206.953125 105.660156 208.695312 103.523438 208.695312 L 88.035156 208.695312 C 85.902344 208.695312 84.164062 206.953125 84.164062 204.820312 L 84.164062 179.53125 C 84.164062 176.941406 85.191406 174.507812 87.039062 172.691406 C 90.09375 169.683594 91.921875 165.613281 92.179688 161.226562 Z M 78.703125 116.691406 L 77.507812 111.882812 L 106.308594 111.882812 L 105.113281 116.691406 C 104.675781 118.417969 103.132812 119.628906 101.347656 119.628906 L 82.46875 119.628906 C 80.683594 119.628906 79.140625 118.417969 78.703125 116.691406 Z M 102.359375 57.667969 L 107.820312 61.3125 C 109.984375 62.75 111.269531 65.15625 111.269531 67.742188 L 111.269531 104.136719 L 72.546875 104.136719 L 72.546875 67.742188 C 72.546875 65.15625 73.832031 62.75 75.996094 61.3125 L 81.457031 57.667969 Z M 140.660156 116.691406 L 139.464844 111.882812 L 168.269531 111.882812 L 167.074219 116.691406 C 166.632812 118.417969 165.089844 119.628906 163.304688 119.628906 L 144.429688 119.628906 C 142.644531 119.628906 141.101562 118.417969 140.660156 116.691406 Z M 164.320312 57.667969 L 169.78125 61.3125 C 171.945312 62.75 173.230469 65.15625 173.230469 67.742188 L 173.230469 104.136719 L 134.503906 104.136719 L 134.503906 67.742188 C 134.503906 65.15625 135.789062 62.75 137.953125 61.3125 L 143.414062 57.667969 Z M 188.71875 38.304688 L 188.71875 119.628906 L 174.226562 119.628906 C 174.347656 119.28125 174.484375 118.945312 174.574219 118.570312 L 176.4375 111.171875 C 179.097656 109.945312 180.972656 107.269531 180.972656 104.136719 L 180.972656 67.742188 C 180.972656 63.992188 179.597656 60.421875 177.207031 57.652344 C 179.296875 57.59375 180.972656 55.898438 180.972656 53.796875 C 180.972656 51.664062 179.234375 49.921875 177.101562 49.921875 L 130.632812 49.921875 C 128.5 49.921875 126.761719 51.664062 126.761719 53.796875 C 126.761719 55.898438 128.4375 57.59375 130.527344 57.652344 C 128.136719 60.421875 126.761719 63.992188 126.761719 67.742188 L 126.761719 104.136719 C 126.761719 107.253906 128.636719 109.945312 131.296875 111.171875 L 133.160156 118.570312 C 133.25 118.945312 133.386719 119.28125 133.507812 119.628906 L 112.269531 119.628906 C 112.390625 119.28125 112.527344 118.945312 112.617188 118.570312 L 114.476562 111.171875 C 117.140625 109.945312 119.015625 107.269531 119.015625 104.136719 L 119.015625 67.742188 C 119.015625 63.992188 117.640625 60.421875 115.25 57.652344 C 117.335938 57.59375 119.015625 55.898438 119.015625 53.796875 C 119.015625 51.664062 117.277344 49.921875 115.144531 49.921875 L 68.671875 49.921875 C 66.539062 49.921875 64.800781 51.664062 64.800781 53.796875 C 64.800781 55.898438 66.480469 57.59375 68.566406 57.652344 C 66.175781 60.421875 64.800781 63.992188 64.800781 67.742188 L 64.800781 104.136719 C 64.800781 107.253906 66.675781 109.945312 69.355469 111.171875 L 71.199219 118.570312 C 71.289062 118.945312 71.425781 119.28125 71.546875 119.628906 L 57.054688 119.628906 L 57.054688 38.304688 Z M 188.71875 30.5625 L 57.054688 30.5625 C 52.789062 30.5625 49.3125 34.039062 49.3125 38.304688 L 49.3125 208.695312 C 49.3125 212.960938 52.789062 216.4375 57.054688 216.4375 L 188.71875 216.4375 C 192.984375 216.4375 196.464844 212.960938 196.464844 208.695312 L 196.464844 38.304688 C 196.464844 34.039062 192.984375 30.5625 188.71875 30.5625 "/><g clip-rule="nonzero" clip-path="url(#626e6e4254)"><path style=" stroke:none;fill-rule:nonzero;fill:#000000;fill-opacity:1;" d="M 254.550781 146.734375 C 252.417969 146.734375 250.679688 144.996094 250.679688 142.863281 L 250.679688 96.394531 L 258.421875 96.394531 L 258.421875 142.863281 C 258.421875 144.996094 256.683594 146.734375 254.550781 146.734375 Z M 235.1875 77.03125 L 254.550781 77.03125 C 256.683594 77.03125 258.421875 78.769531 258.421875 80.902344 L 258.421875 88.648438 L 235.1875 88.648438 Z M 227.445312 216.4375 C 227.445312 220.703125 223.964844 224.183594 219.699219 224.183594 L 211.953125 224.183594 L 211.953125 22.816406 L 219.699219 22.816406 C 223.964844 22.816406 227.445312 26.296875 227.445312 30.5625 Z M 192.59375 224.183594 L 53.183594 224.183594 C 46.769531 224.183594 41.566406 218.980469 41.566406 212.566406 L 41.566406 34.433594 C 41.566406 28.019531 46.769531 22.816406 53.183594 22.816406 L 192.59375 22.816406 C 199.003906 22.816406 204.210938 28.019531 204.210938 34.433594 L 204.210938 212.566406 C 204.210938 218.980469 199.003906 224.183594 192.59375 224.183594 Z M 184.847656 239.671875 L 157.738281 239.671875 C 155.605469 239.671875 153.867188 237.933594 153.867188 235.800781 L 153.867188 231.929688 L 188.71875 231.929688 L 188.71875 235.800781 C 188.71875 237.933594 186.980469 239.671875 184.847656 239.671875 Z M 91.90625 235.800781 C 91.90625 237.933594 90.167969 239.671875 88.035156 239.671875 L 60.929688 239.671875 C 58.796875 239.671875 57.054688 237.933594 57.054688 235.800781 L 57.054688 231.929688 L 91.90625 231.929688 Z M 254.550781 69.285156 L 235.1875 69.285156 L 235.1875 30.5625 C 235.1875 22.015625 228.246094 15.070312 219.699219 15.070312 L 211.953125 15.070312 C 208.824219 15.070312 206.128906 16.945312 204.921875 19.625 C 201.5625 16.824219 197.296875 15.070312 192.59375 15.070312 L 53.183594 15.070312 C 42.503906 15.070312 33.820312 23.753906 33.820312 34.433594 L 33.820312 212.566406 C 33.820312 221.914062 40.476562 229.734375 49.3125 231.535156 L 49.3125 235.800781 C 49.3125 242.214844 54.515625 247.417969 60.929688 247.417969 L 88.035156 247.417969 C 94.449219 247.417969 99.652344 242.214844 99.652344 235.800781 L 99.652344 231.929688 L 146.121094 231.929688 L 146.121094 235.800781 C 146.121094 242.214844 151.324219 247.417969 157.738281 247.417969 L 184.847656 247.417969 C 191.261719 247.417969 196.464844 242.214844 196.464844 235.800781 L 196.464844 231.535156 C 199.65625 230.886719 202.5 229.386719 204.921875 227.375 C 206.128906 230.054688 208.824219 231.929688 211.953125 231.929688 L 219.699219 231.929688 C 228.246094 231.929688 235.1875 224.984375 235.1875 216.4375 L 235.1875 96.394531 L 242.933594 96.394531 L 242.933594 142.863281 C 242.933594 149.277344 248.136719 154.480469 254.550781 154.480469 C 260.964844 154.480469 266.167969 149.277344 266.167969 142.863281 L 266.167969 80.902344 C 266.167969 74.488281 260.964844 69.285156 254.550781 69.285156 "/></g></g></svg>