<svg xmlns="http://www.w3.org/2000/svg" xmlns:xlink="http://www.w3.org/1999/xlink" width="400" zoomAndPan="magnify" viewBox="0 0 300 270" height="350" preserveAspectRatio="xMidYMid meet" version="1.2"><defs><clipPath id="ea46293a64"><path d="M 0 0 L 300 0 L 300 262.5 L 0 262.5 Z M 0 0 "/></clipPath><clipPath id="5cd58e0b81"><path d="M 40.058594 12.21875 L 256.808594 12.21875 L 256.808594 246.96875 L 40.058594 246.96875 Z M 40.058594 12.21875 "/></clipPath></defs><g id="1ab058b6b4"><g clip-rule="nonzero" clip-path="url(#ea46293a64)"><path style=" stroke:none;fill-rule:nonzero;fill:#ffffff;fill-opacity:1;" d="M 0 0 L 300 0 L 300 262.5 L 0 262.5 Z M 0 0 "/><path style=" stroke:none;fill-rule:nonzero;fill:#ffffff;fill-opacity:1;" d="M 0 0 L 300 0 L 300 262.5 L 0 262.5 Z M 0 0 "/></g><g clip-rule="nonzero" clip-path="url(#5cd58e0b81)"><path style=" stroke:none;fill-rule:evenodd;fill:#000000;fill-opacity:1;" d="M 82.242188 212.453125 C 74.292969 214.035156 68.296875 221.058594 68.296875 229.472656 C 68.296875 239.054688 76.070312 246.832031 85.644531 246.832031 C 94.0625 246.832031 101.082031 240.828125 102.664062 232.878906 L 213.082031 232.878906 C 214.964844 232.878906 216.488281 231.351562 216.488281 229.472656 C 216.488281 227.597656 214.964844 226.066406 213.082031 226.066406 L 102.664062 226.066406 C 101.296875 219.214844 95.898438 213.816406 89.050781 212.453125 L 89.050781 178.3125 C 89.050781 176.4375 87.527344 174.90625 85.644531 174.90625 C 83.765625 174.90625 82.242188 176.4375 82.242188 178.3125 Z M 235.671875 212.453125 C 227.722656 214.035156 221.722656 221.058594 221.722656 229.472656 C 221.722656 239.054688 229.5 246.832031 239.078125 246.832031 C 248.652344 246.832031 256.429688 239.054688 256.429688 229.472656 C 256.429688 221.058594 250.429688 214.035156 242.480469 212.453125 L 242.480469 178.3125 C 242.480469 176.4375 240.957031 174.90625 239.078125 174.90625 C 237.195312 174.90625 235.671875 176.4375 235.671875 178.3125 Z M 85.644531 218.929688 C 91.46875 218.929688 96.191406 223.652344 96.191406 229.472656 C 96.191406 235.296875 91.46875 240.023438 85.644531 240.023438 C 79.828125 240.023438 75.105469 235.296875 75.105469 229.472656 C 75.105469 223.652344 79.828125 218.929688 85.644531 218.929688 Z M 239.078125 218.929688 C 244.894531 218.929688 249.621094 223.652344 249.621094 229.472656 C 249.621094 235.296875 244.894531 240.023438 239.078125 240.023438 C 233.257812 240.023438 228.53125 235.296875 228.53125 229.472656 C 228.53125 223.652344 233.257812 218.929688 239.078125 218.929688 Z M 94.945312 200.324219 L 229.992188 200.324219 C 231.871094 200.324219 233.394531 198.796875 233.394531 196.917969 C 233.394531 195.035156 231.871094 193.511719 229.992188 193.511719 L 94.945312 193.511719 C 93.066406 193.511719 91.542969 195.035156 91.542969 196.917969 C 91.542969 198.796875 93.066406 200.324219 94.945312 200.324219 Z M 55.59375 47.074219 L 91.542969 47.074219 L 91.542969 86.539062 L 71.703125 86.539062 C 69.816406 86.539062 68.296875 88.0625 68.296875 89.945312 L 68.296875 152.78125 C 68.296875 164.671875 77.941406 174.324219 89.828125 174.324219 C 100.707031 174.324219 109.710938 166.242188 111.164062 155.757812 C 111.292969 155.394531 111.367188 155.003906 111.367188 154.59375 C 111.367188 146.464844 117.96875 139.859375 126.097656 139.859375 C 134.222656 139.859375 140.828125 146.464844 140.828125 154.59375 C 140.828125 155.003906 140.898438 155.394531 141.03125 155.757812 C 142.480469 166.242188 151.488281 174.324219 162.363281 174.324219 C 173.238281 174.324219 182.242188 166.242188 183.691406 155.757812 C 183.828125 155.394531 183.894531 155.003906 183.894531 154.59375 C 183.894531 146.464844 190.5 139.859375 198.625 139.859375 C 206.757812 139.859375 213.355469 146.464844 213.355469 154.59375 C 213.355469 155.003906 213.429688 155.394531 213.558594 155.757812 C 215.011719 166.242188 224.015625 174.324219 234.890625 174.324219 C 246.777344 174.324219 256.429688 164.671875 256.429688 152.78125 L 256.429688 89.945312 C 256.429688 88.0625 254.90625 86.539062 253.027344 86.539062 L 98.347656 86.539062 L 98.347656 43.671875 C 98.347656 41.789062 96.824219 40.265625 94.945312 40.265625 L 55.914062 40.265625 C 54.703125 37.265625 51.765625 35.148438 48.335938 35.148438 C 43.828125 35.148438 40.167969 38.808594 40.167969 43.320312 C 40.167969 47.832031 43.828125 51.492188 48.335938 51.492188 C 51.488281 51.492188 54.234375 49.699219 55.59375 47.074219 Z M 75.105469 152.78125 C 75.105469 160.910156 81.703125 167.515625 89.828125 167.515625 C 97.960938 167.515625 104.558594 160.910156 104.558594 152.78125 L 104.558594 122.503906 C 104.558594 120.625 106.082031 119.101562 107.964844 119.101562 C 109.84375 119.101562 111.367188 120.625 111.367188 122.503906 L 111.367188 138.882812 C 115.222656 135.265625 120.398438 133.050781 126.097656 133.050781 C 131.789062 133.050781 136.972656 135.265625 140.828125 138.882812 L 140.828125 122.503906 C 140.828125 120.625 142.351562 119.101562 144.230469 119.101562 C 146.109375 119.101562 147.632812 120.625 147.632812 122.503906 L 147.632812 152.78125 C 147.632812 160.910156 154.230469 167.515625 162.363281 167.515625 C 170.492188 167.515625 177.089844 160.910156 177.089844 152.78125 L 177.089844 122.503906 C 177.089844 120.625 178.617188 119.101562 180.492188 119.101562 C 182.371094 119.101562 183.894531 120.625 183.894531 122.503906 L 183.894531 138.882812 C 187.75 135.265625 192.933594 133.050781 198.625 133.050781 C 204.324219 133.050781 209.5 135.265625 213.355469 138.882812 L 213.355469 122.503906 C 213.355469 120.625 214.878906 119.101562 216.757812 119.101562 C 218.640625 119.101562 220.164062 120.625 220.164062 122.503906 L 220.164062 152.78125 C 220.164062 160.910156 226.761719 167.515625 234.890625 167.515625 C 243.019531 167.515625 249.621094 160.910156 249.621094 152.78125 C 249.621094 152.78125 249.621094 93.347656 249.621094 93.347656 L 75.105469 93.347656 Z M 132.140625 84.046875 L 234.425781 84.046875 C 236.304688 84.046875 237.832031 82.523438 237.832031 80.640625 C 237.832031 78.765625 236.304688 77.238281 234.425781 77.238281 L 132.140625 77.238281 C 130.265625 77.238281 128.734375 78.765625 128.734375 80.640625 C 128.734375 82.523438 130.265625 84.046875 132.140625 84.046875 Z M 177.921875 26.1875 C 155.453125 28.953125 138.035156 48.128906 138.035156 71.34375 C 138.035156 73.226562 139.558594 74.75 141.4375 74.75 C 143.320312 74.75 144.84375 73.226562 144.84375 71.34375 C 144.84375 49.988281 162.171875 32.65625 183.519531 32.65625 C 204.863281 32.65625 222.1875 49.988281 222.1875 71.34375 C 222.1875 73.226562 223.714844 74.75 225.59375 74.75 C 227.472656 74.75 228.996094 73.226562 228.996094 71.34375 C 228.996094 47.988281 211.367188 28.722656 188.703125 26.140625 C 190.320312 24.667969 191.335938 22.539062 191.335938 20.183594 C 191.335938 15.734375 187.730469 12.128906 183.28125 12.128906 C 178.835938 12.128906 175.230469 15.734375 175.230469 20.183594 C 175.230469 22.566406 176.273438 24.714844 177.921875 26.1875 Z M 177.921875 26.1875 "/></g></g></svg>