<svg xmlns="http://www.w3.org/2000/svg" xmlns:xlink="http://www.w3.org/1999/xlink" width="400" zoomAndPan="magnify" viewBox="0 0 300 270" height="350" preserveAspectRatio="xMidYMid meet" version="1.2"><defs><clipPath id="21310b55e6"><path d="M 0 0 L 300 0 L 300 262.5 L 0 262.5 Z M 0 0 "/></clipPath><clipPath id="a252c88fa9"><path d="M 18.648438 65.574219 L 281.148438 65.574219 L 281.148438 196.824219 L 18.648438 196.824219 Z M 18.648438 65.574219 "/></clipPath></defs><g id="77e513615e"><g clip-rule="nonzero" clip-path="url(#21310b55e6)"><path style=" stroke:none;fill-rule:nonzero;fill:#ffffff;fill-opacity:1;" d="M 0 0 L 300 0 L 300 262.5 L 0 262.5 Z M 0 0 "/><path style=" stroke:none;fill-rule:nonzero;fill:#ffffff;fill-opacity:1;" d="M 0 0 L 300 0 L 300 262.5 L 0 262.5 Z M 0 0 "/></g><g clip-rule="nonzero" clip-path="url(#a252c88fa9)"><path style=" stroke:none;fill-rule:nonzero;fill:#000000;fill-opacity:1;" d="M 279.230469 117.996094 L 260.542969 77.496094 C 257.183594 70.25 249.886719 65.578125 241.90625 65.578125 L 43.269531 65.578125 C 36.390625 65.578125 30.828125 68.175781 26.730469 73.269531 C 21.296875 80.066406 18.648438 90.960938 18.648438 106.578125 L 18.648438 168.105469 C 18.648438 174.875 24.160156 180.414062 30.957031 180.414062 L 52.875 180.414062 C 56.261719 189.96875 65.367188 196.820312 76.078125 196.820312 C 86.785156 196.820312 95.894531 189.96875 99.28125 180.414062 L 200.515625 180.414062 C 203.902344 189.96875 213.007812 196.820312 223.71875 196.820312 C 234.425781 196.820312 243.535156 189.96875 246.921875 180.414062 L 268.835938 180.414062 C 275.609375 180.414062 281.148438 174.902344 281.148438 168.105469 L 281.148438 126.605469 C 281.121094 123.640625 280.464844 120.671875 279.230469 117.996094 Z M 256.5 90.199219 C 256.789062 90.199219 257.050781 90.171875 257.316406 90.121094 L 270.621094 118.886719 L 249.570312 118.886719 L 227.8125 104.398438 L 227.8125 90.199219 Z M 76.078125 188.628906 C 67.023438 188.628906 59.671875 181.28125 59.671875 172.226562 C 59.671875 163.167969 67.023438 155.820312 76.078125 155.820312 C 85.132812 155.820312 92.480469 163.167969 92.480469 172.226562 C 92.480469 181.28125 85.105469 188.628906 76.078125 188.628906 Z M 223.691406 188.628906 C 214.636719 188.628906 207.289062 181.28125 207.289062 172.226562 C 207.289062 163.167969 214.636719 155.820312 223.691406 155.820312 C 232.746094 155.820312 240.097656 163.167969 240.097656 172.226562 C 240.097656 181.28125 232.746094 188.628906 223.691406 188.628906 Z M 272.933594 147.605469 L 264.742188 147.605469 C 262.484375 147.605469 260.648438 149.441406 260.648438 151.699219 C 260.648438 153.957031 262.484375 155.792969 264.742188 155.792969 L 272.933594 155.792969 L 272.933594 168.105469 C 272.933594 170.363281 271.09375 172.199219 268.835938 172.199219 L 248.3125 172.199219 C 248.3125 158.628906 237.261719 147.578125 223.691406 147.578125 C 210.121094 147.578125 199.070312 158.628906 199.070312 172.199219 L 100.644531 172.199219 C 100.644531 158.628906 89.59375 147.578125 76.023438 147.578125 C 62.453125 147.578125 51.457031 158.65625 51.457031 172.199219 L 30.957031 172.199219 C 28.699219 172.199219 26.863281 170.363281 26.863281 168.105469 L 26.863281 147.605469 L 30.957031 147.605469 C 33.214844 147.605469 35.050781 145.765625 35.050781 143.507812 C 35.050781 141.253906 33.214844 139.414062 30.957031 139.414062 L 26.835938 139.414062 L 26.835938 131.199219 L 30.929688 131.199219 C 33.1875 131.199219 35.027344 129.363281 35.027344 127.105469 C 35.027344 124.847656 33.1875 123.007812 30.929688 123.007812 L 26.835938 123.007812 L 26.835938 106.605469 C 26.835938 73.792969 39.199219 73.792969 43.242188 73.792969 L 241.90625 73.792969 C 246.683594 73.792969 251.066406 76.601562 253.089844 80.933594 L 253.585938 81.984375 L 223.71875 81.984375 C 221.460938 81.984375 219.625 83.820312 219.625 86.078125 L 219.625 106.578125 C 219.625 107.941406 220.304688 109.230469 221.460938 109.988281 L 246.082031 126.394531 C 246.761719 126.839844 247.550781 127.078125 248.363281 127.078125 L 272.984375 127.078125 Z M 272.933594 147.605469 "/></g><path style=" stroke:none;fill-rule:nonzero;fill:#000000;fill-opacity:1;" d="M 203.191406 81.984375 L 55.550781 81.984375 C 53.292969 81.984375 51.457031 83.820312 51.457031 86.078125 L 51.457031 118.886719 C 51.457031 121.144531 53.292969 122.984375 55.550781 122.984375 L 203.191406 122.984375 C 205.449219 122.984375 207.289062 121.144531 207.289062 118.886719 L 207.289062 86.078125 C 207.3125 83.820312 205.476562 81.984375 203.191406 81.984375 Z M 100.671875 114.792969 L 59.644531 114.792969 L 59.644531 90.199219 L 100.644531 90.199219 L 100.644531 114.792969 Z M 149.882812 114.792969 L 108.886719 114.792969 L 108.886719 90.199219 L 149.882812 90.199219 Z M 199.097656 114.792969 L 158.074219 114.792969 L 158.074219 90.199219 L 199.070312 90.199219 L 199.070312 114.792969 Z M 199.097656 114.792969 "/><path style=" stroke:none;fill-rule:nonzero;fill:#000000;fill-opacity:1;" d="M 80.171875 172.199219 C 80.171875 172.46875 80.144531 172.734375 80.09375 172.996094 C 80.039062 173.261719 79.960938 173.519531 79.859375 173.765625 C 79.757812 174.015625 79.628906 174.25 79.480469 174.472656 C 79.332031 174.699219 79.164062 174.90625 78.972656 175.09375 C 78.78125 175.285156 78.574219 175.453125 78.351562 175.605469 C 78.128906 175.753906 77.890625 175.878906 77.644531 175.980469 C 77.394531 176.085938 77.140625 176.164062 76.875 176.214844 C 76.613281 176.269531 76.347656 176.292969 76.078125 176.292969 C 75.808594 176.292969 75.542969 176.269531 75.277344 176.214844 C 75.015625 176.164062 74.757812 176.085938 74.511719 175.980469 C 74.261719 175.878906 74.027344 175.753906 73.800781 175.605469 C 73.578125 175.453125 73.371094 175.285156 73.179688 175.09375 C 72.992188 174.90625 72.820312 174.699219 72.671875 174.472656 C 72.523438 174.25 72.398438 174.015625 72.292969 173.765625 C 72.191406 173.519531 72.113281 173.261719 72.0625 172.996094 C 72.007812 172.734375 71.980469 172.46875 71.980469 172.199219 C 71.980469 171.929688 72.007812 171.664062 72.0625 171.398438 C 72.113281 171.136719 72.191406 170.878906 72.292969 170.632812 C 72.398438 170.382812 72.523438 170.148438 72.671875 169.925781 C 72.820312 169.699219 72.992188 169.492188 73.179688 169.304688 C 73.371094 169.113281 73.578125 168.945312 73.800781 168.792969 C 74.027344 168.644531 74.261719 168.519531 74.511719 168.414062 C 74.757812 168.3125 75.015625 168.234375 75.277344 168.183594 C 75.542969 168.128906 75.808594 168.105469 76.078125 168.105469 C 76.347656 168.105469 76.613281 168.128906 76.875 168.183594 C 77.140625 168.234375 77.394531 168.3125 77.644531 168.414062 C 77.890625 168.519531 78.128906 168.644531 78.351562 168.792969 C 78.574219 168.945312 78.78125 169.113281 78.972656 169.304688 C 79.164062 169.492188 79.332031 169.699219 79.480469 169.925781 C 79.628906 170.148438 79.757812 170.382812 79.859375 170.632812 C 79.960938 170.878906 80.039062 171.136719 80.09375 171.398438 C 80.144531 171.664062 80.171875 171.929688 80.171875 172.199219 Z M 80.171875 172.199219 "/><path style=" stroke:none;fill-rule:nonzero;fill:#000000;fill-opacity:1;" d="M 227.785156 172.199219 C 227.785156 172.46875 227.761719 172.734375 227.707031 172.996094 C 227.65625 173.261719 227.578125 173.519531 227.476562 173.765625 C 227.371094 174.015625 227.246094 174.25 227.097656 174.472656 C 226.945312 174.699219 226.777344 174.90625 226.585938 175.09375 C 226.398438 175.285156 226.191406 175.453125 225.96875 175.605469 C 225.742188 175.753906 225.507812 175.878906 225.257812 175.980469 C 225.011719 176.085938 224.753906 176.164062 224.492188 176.214844 C 224.226562 176.269531 223.960938 176.292969 223.691406 176.292969 C 223.421875 176.292969 223.15625 176.269531 222.894531 176.214844 C 222.628906 176.164062 222.375 176.085938 222.125 175.980469 C 221.875 175.878906 221.640625 175.753906 221.417969 175.605469 C 221.195312 175.453125 220.988281 175.285156 220.796875 175.09375 C 220.605469 174.90625 220.4375 174.699219 220.289062 174.472656 C 220.136719 174.25 220.011719 174.015625 219.910156 173.765625 C 219.804688 173.519531 219.730469 173.261719 219.675781 172.996094 C 219.625 172.734375 219.597656 172.46875 219.597656 172.199219 C 219.597656 171.929688 219.625 171.664062 219.675781 171.398438 C 219.730469 171.136719 219.804688 170.878906 219.910156 170.632812 C 220.011719 170.382812 220.136719 170.148438 220.289062 169.925781 C 220.4375 169.699219 220.605469 169.492188 220.796875 169.304688 C 220.988281 169.113281 221.195312 168.945312 221.417969 168.792969 C 221.640625 168.644531 221.875 168.519531 222.125 168.414062 C 222.375 168.3125 222.628906 168.234375 222.894531 168.183594 C 223.15625 168.128906 223.421875 168.105469 223.691406 168.105469 C 223.960938 168.105469 224.226562 168.128906 224.492188 168.183594 C 224.753906 168.234375 225.011719 168.3125 225.257812 168.414062 C 225.507812 168.519531 225.742188 168.644531 225.96875 168.792969 C 226.191406 168.945312 226.398438 169.113281 226.585938 169.304688 C 226.777344 169.492188 226.945312 169.699219 227.097656 169.925781 C 227.246094 170.148438 227.371094 170.382812 227.476562 170.632812 C 227.578125 170.878906 227.65625 171.136719 227.707031 171.398438 C 227.761719 171.664062 227.785156 171.929688 227.785156 172.199219 Z M 227.785156 172.199219 "/></g></svg>