<svg xmlns="http://www.w3.org/2000/svg" xmlns:xlink="http://www.w3.org/1999/xlink" width="400" zoomAndPan="magnify" viewBox="0 0 300 270" height="350" preserveAspectRatio="xMidYMid meet" version="1.2"><defs><clipPath id="4c74873dbd"><path d="M 0 0 L 300 0 L 300 262.5 L 0 262.5 Z M 0 0 "/></clipPath><clipPath id="8a5f452b57"><path d="M 15.015625 18.03125 L 285.015625 18.03125 L 285.015625 244.53125 L 15.015625 244.53125 Z M 15.015625 18.03125 "/></clipPath></defs><g id="2fd395e93e"><g clip-rule="nonzero" clip-path="url(#4c74873dbd)"><path style=" stroke:none;fill-rule:nonzero;fill:#ffffff;fill-opacity:1;" d="M 0 0 L 300 0 L 300 262.5 L 0 262.5 Z M 0 0 "/><path style=" stroke:none;fill-rule:nonzero;fill:#ffffff;fill-opacity:1;" d="M 0 0 L 300 0 L 300 262.5 L 0 262.5 Z M 0 0 "/></g><g clip-rule="nonzero" clip-path="url(#8a5f452b57)"><path style=" stroke:none;fill-rule:nonzero;fill:#000000;fill-opacity:1;" d="M 269.339844 204.273438 C 271.972656 201.71875 273.46875 198.820312 273.46875 195.679688 C 273.46875 189.671875 268.15625 184.398438 258.9375 180.933594 C 262.554688 178.191406 264.6875 174.816406 264.6875 171.121094 C 264.6875 166.902344 261.929688 163.101562 257.335938 160.183594 L 257.335938 112.785156 C 257.335938 107.316406 248.328125 105.28125 241.523438 104.523438 C 244.660156 96.148438 242.628906 85.777344 235.386719 73.519531 C 234.832031 72.578125 233.820312 72 232.726562 72 C 231.632812 72 230.621094 72.578125 230.066406 73.519531 C 222.824219 85.777344 220.796875 96.152344 223.933594 104.523438 C 220.824219 104.871094 217.265625 105.484375 214.304688 106.570312 L 214.304688 61.980469 C 214.304688 56.183594 204.453125 54.0625 197.171875 53.285156 C 200.679688 44.28125 198.542969 33.085938 190.703125 19.820312 C 190.148438 18.878906 189.136719 18.300781 188.042969 18.300781 C 186.949219 18.300781 185.9375 18.878906 185.382812 19.820312 C 177.542969 33.085938 175.40625 44.28125 178.914062 53.285156 C 171.632812 54.0625 161.78125 56.183594 161.78125 61.980469 L 161.78125 140.320312 C 154.050781 130.925781 142.148438 126.308594 125.6875 126.308594 L 55.875 138.125 L 55.878906 138.160156 C 33.136719 139.519531 15.03125 158.402344 15.03125 181.488281 C 15.03125 186.601562 15.96875 191.492188 17.597656 196.054688 C 17.648438 196.351562 17.730469 196.644531 17.875 196.925781 C 17.914062 197 17.957031 197.070312 17.996094 197.140625 C 24.296875 213.382812 40.046875 224.949219 58.484375 224.949219 C 63.453125 224.949219 68.257812 224.082031 72.765625 222.515625 L 106.691406 217.421875 C 107.113281 217.871094 107.523438 218.324219 107.957031 218.757812 C 118.734375 229.535156 133.253906 235.503906 148.363281 235.503906 C 149.851562 235.503906 151.347656 235.445312 152.84375 235.328125 C 154.339844 235.445312 155.828125 235.503906 157.316406 235.503906 C 167.902344 235.503906 178.277344 232.566406 187.253906 227.042969 C 192.503906 237.175781 211.46875 244.265625 235.425781 244.265625 C 263.722656 244.265625 285.058594 234.378906 285.058594 221.269531 C 285.058594 214.554688 279.398438 208.527344 269.339844 204.273438 Z M 267.285156 195.679688 C 267.285156 201.65625 252.910156 208.339844 233.671875 208.339844 C 214.433594 208.339844 200.058594 201.65625 200.058594 195.679688 C 200.058594 191.644531 206.492188 187.414062 216.144531 185.027344 C 221.101562 186.835938 227.117188 187.882812 233.671875 187.882812 C 240.226562 187.882812 246.242188 186.835938 251.199219 185.027344 C 260.851562 187.414062 267.285156 191.640625 267.285156 195.679688 Z M 185.839844 220.554688 C 178.324219 225.644531 169.585938 228.605469 160.542969 229.175781 C 169.867188 218.753906 175.113281 205.246094 175.113281 191.085938 C 175.113281 190.121094 175.082031 189.160156 175.035156 188.199219 C 183.4375 181.449219 193.820312 177.539062 204.625 177.054688 C 205.578125 178.449219 206.847656 179.75 208.40625 180.933594 C 199.1875 184.398438 193.875 189.671875 193.875 195.679688 C 193.875 199.261719 195.8125 202.539062 199.1875 205.332031 C 190.945312 209.34375 186.195312 214.710938 185.839844 220.554688 Z M 208.121094 115.796875 L 208.121094 161.511719 C 204.71875 164.179688 202.722656 167.425781 202.671875 170.972656 C 192.4375 171.734375 182.59375 175.21875 174.214844 181.0625 C 173.113281 174.855469 170.992188 168.910156 167.964844 163.4375 L 167.964844 68.375 C 174.785156 70.960938 185.167969 71.152344 188.042969 71.152344 C 190.917969 71.152344 201.304688 70.960938 208.121094 68.375 Z M 168.929688 191.085938 C 168.929688 203.757812 164.222656 215.839844 155.851562 225.148438 C 155.164062 211.046875 149.304688 197.632812 139.195312 187.519531 C 138.617188 186.941406 138.019531 186.386719 137.417969 185.835938 C 138.660156 173.648438 144.113281 162.503906 153.015625 154.082031 C 163.160156 163.699219 168.929688 177.035156 168.929688 191.085938 Z M 233.671875 181.699219 C 219.460938 181.699219 208.839844 176.113281 208.839844 171.121094 C 208.839844 166.125 219.460938 160.539062 233.671875 160.539062 C 247.886719 160.539062 258.503906 166.125 258.503906 171.121094 C 258.503906 176.113281 247.882812 181.699219 233.671875 181.699219 Z M 233.671875 154.355469 C 226.277344 154.355469 219.578125 155.695312 214.304688 157.949219 L 214.304688 119 C 220.691406 121.332031 230.085938 121.519531 232.726562 121.519531 C 235.367188 121.519531 244.761719 121.332031 251.152344 119 L 251.152344 157.191406 C 246.203125 155.394531 240.203125 154.355469 233.671875 154.355469 Z M 232.726562 81.582031 C 238.089844 92.558594 238.085938 101.050781 232.726562 107.359375 C 227.367188 101.050781 227.363281 92.558594 232.726562 81.582031 Z M 227.246094 110.433594 C 228.238281 111.707031 229.378906 112.921875 230.679688 114.074219 C 231.265625 114.589844 231.996094 114.847656 232.726562 114.847656 C 233.457031 114.847656 234.1875 114.589844 234.773438 114.074219 C 236.074219 112.921875 237.21875 111.707031 238.210938 110.433594 C 244.347656 110.875 248.261719 111.945312 250.132812 112.785156 C 247.59375 113.925781 241.570312 115.335938 232.726562 115.335938 C 223.882812 115.335938 217.859375 113.925781 215.320312 112.789062 C 217.191406 111.945312 221.105469 110.875 227.246094 110.433594 Z M 188.042969 27.84375 C 194.140625 40.09375 194.140625 49.53125 188.042969 56.503906 C 181.945312 49.53125 181.945312 40.09375 188.042969 27.84375 Z M 182.246094 59.207031 C 183.320312 60.605469 184.570312 61.933594 185.996094 63.191406 C 186.582031 63.707031 187.3125 63.964844 188.042969 63.964844 C 188.773438 63.964844 189.503906 63.707031 190.089844 63.191406 C 191.515625 61.933594 192.765625 60.605469 193.839844 59.207031 C 201.089844 59.714844 205.484375 61.027344 207.339844 61.984375 C 204.863281 63.265625 198.1875 64.96875 188.042969 64.96875 C 177.898438 64.96875 171.222656 63.265625 168.746094 61.984375 C 170.601562 61.027344 174.996094 59.714844 182.246094 59.207031 Z M 125.945312 132.492188 C 144.539062 132.550781 155.9375 138.8125 161.78125 152.148438 L 161.78125 154.402344 C 159.738281 151.960938 157.484375 149.671875 155.023438 147.574219 C 153.863281 146.585938 152.167969 146.585938 151.007812 147.574219 C 140.722656 156.347656 134.015625 168.152344 131.761719 181.261719 C 122.636719 174.800781 111.8125 171.148438 100.570312 170.800781 C 97.113281 157.132812 87.300781 146.289062 74.683594 141.203125 Z M 42.617188 215.164062 C 44.347656 215.445312 46.109375 215.601562 47.894531 215.601562 C 66.703125 215.601562 82.003906 200.296875 82.003906 181.488281 C 82.003906 168.316406 71.289062 157.605469 58.125 157.605469 C 44.957031 157.605469 34.242188 168.316406 34.242188 181.488281 C 34.242188 189.730469 40.949219 196.4375 49.191406 196.4375 C 57.4375 196.4375 64.140625 189.730469 64.140625 181.488281 C 64.140625 179.78125 62.757812 178.394531 61.050781 178.394531 C 59.34375 178.394531 57.957031 179.78125 57.957031 181.488281 C 57.957031 186.320312 54.027344 190.253906 49.195312 190.253906 C 44.359375 190.253906 40.429688 186.320312 40.429688 181.488281 C 40.429688 171.726562 48.367188 163.789062 58.125 163.789062 C 67.882812 163.789062 75.820312 171.726562 75.820312 181.488281 C 75.820312 196.890625 63.292969 209.417969 47.894531 209.417969 C 37.777344 209.417969 28.53125 203.726562 23.625 194.542969 C 22.09375 190.472656 21.21875 186.085938 21.21875 181.488281 C 21.21875 160.933594 37.9375 144.214844 58.484375 144.214844 C 75.132812 144.214844 89.628906 155.265625 94.230469 170.953125 C 92.71875 171.078125 91.519531 172.277344 91.398438 173.789062 C 90.84375 180.769531 91.589844 187.6875 93.488281 194.242188 C 88.136719 208.9375 74.199219 218.761719 58.484375 218.761719 C 52.804688 218.761719 47.441406 217.449219 42.621094 215.164062 Z M 87.191406 214.09375 C 90.921875 210.808594 94.105469 206.878906 96.554688 202.417969 C 98.085938 205.71875 99.925781 208.886719 102.082031 211.859375 Z M 149.734375 229.300781 C 135.792969 229.664062 122.265625 224.320312 112.332031 214.386719 C 102.398438 204.449219 97.042969 190.941406 97.417969 176.976562 C 111.402344 176.613281 124.886719 181.957031 134.820312 191.890625 C 144.753906 201.828125 150.109375 215.332031 149.734375 229.300781 Z M 235.425781 238.082031 C 209.824219 238.082031 191.980469 229.21875 191.980469 221.265625 C 191.980469 216.96875 197.058594 212.535156 205.617188 209.28125 C 212.707031 212.554688 222.507812 214.523438 233.671875 214.523438 C 245.636719 214.523438 256.015625 212.253906 263.1875 208.550781 C 272.890625 211.820312 278.875 216.632812 278.875 221.265625 C 278.875 229.21875 261.03125 238.082031 235.425781 238.082031 Z M 235.425781 238.082031 "/></g></g></svg>