<svg xmlns="http://www.w3.org/2000/svg" xmlns:xlink="http://www.w3.org/1999/xlink" width="400" zoomAndPan="magnify" viewBox="0 0 300 270" height="350" preserveAspectRatio="xMidYMid meet" version="1.2"><defs><clipPath id="89edd9b510"><path d="M 0 0 L 300 0 L 300 262.5 L 0 262.5 Z M 0 0 "/></clipPath><clipPath id="dbb4699985"><path d="M 16 21.707031 L 125 21.707031 L 125 97 L 16 97 Z M 16 21.707031 "/></clipPath></defs><g id="18d9c350f4"><g clip-rule="nonzero" clip-path="url(#89edd9b510)"><path style=" stroke:none;fill-rule:nonzero;fill:#ffffff;fill-opacity:1;" d="M 0 0 L 300 0 L 300 262.5 L 0 262.5 Z M 0 0 "/><path style=" stroke:none;fill-rule:nonzero;fill:#ffffff;fill-opacity:1;" d="M 0 0 L 300 0 L 300 262.5 L 0 262.5 Z M 0 0 "/></g><path style=" stroke:none;fill-rule:evenodd;fill:#000000;fill-opacity:1;" d="M 178.410156 208.039062 C 172.972656 208.039062 163.410156 191.132812 136.339844 207.339844 C 135.28125 207.972656 133.953125 207.941406 132.933594 207.257812 C 122.191406 200.050781 102.746094 196.296875 95.484375 206.535156 C 94.460938 207.980469 92.460938 208.308594 91.03125 207.273438 C 83.769531 202.027344 67.992188 194.621094 60.269531 204.191406 C 60.039062 204.476562 59.761719 204.71875 59.445312 204.910156 C 46.949219 212.511719 32.214844 201.511719 37.515625 197.089844 C 38.855469 195.964844 40.859375 196.144531 41.980469 197.480469 C 42.59375 198.195312 47.988281 204.082031 55.710938 199.730469 C 65.609375 188.152344 82.292969 194.085938 92.296875 200.457031 C 102.625 189.859375 122.425781 193.464844 134.761719 200.890625 C 150.976562 191.636719 163.855469 191.652344 178.332031 200.988281 C 191.402344 192.039062 206.90625 191.988281 219.703125 200.859375 C 248.070312 185.699219 248.792969 200.046875 264.578125 201.449219 C 273.0625 202.203125 274.699219 193.46875 278.808594 197.054688 C 283.496094 201.148438 272.132812 208.5 264.023438 207.78125 C 244.980469 206.097656 248.554688 192.097656 220.988281 207.394531 C 219.882812 208.007812 218.519531 207.902344 217.511719 207.132812 C 206.191406 198.410156 191.945312 198.507812 180.332031 207.382812 C 179.769531 207.824219 179.089844 208.039062 178.410156 208.039062 Z M 178.410156 208.039062 "/><path style=" stroke:none;fill-rule:evenodd;fill:#000000;fill-opacity:1;" d="M 178.410156 234.511719 C 172.984375 234.511719 163.355469 217.597656 136.339844 233.8125 C 135.28125 234.445312 133.953125 234.417969 132.933594 233.730469 C 122.183594 226.523438 102.742188 222.769531 95.484375 233.007812 C 94.464844 234.441406 92.46875 234.78125 91.035156 233.746094 C 83.773438 228.5 67.996094 221.097656 60.273438 230.664062 C 60.042969 230.949219 59.761719 231.191406 59.449219 231.382812 C 46.886719 238.972656 32.238281 227.976562 37.519531 223.5625 C 38.859375 222.4375 40.855469 222.617188 41.984375 223.953125 C 42.589844 224.65625 47.988281 230.558594 55.714844 226.207031 C 65.613281 214.625 82.296875 220.5625 92.300781 226.925781 C 102.628906 216.324219 122.429688 219.929688 134.765625 227.363281 C 150.972656 218.105469 163.851562 218.125 178.335938 227.460938 C 191.402344 218.507812 206.90625 218.457031 219.703125 227.332031 C 248.054688 212.179688 248.757812 226.492188 264.582031 227.921875 C 273.066406 228.6875 274.699219 219.933594 278.808594 223.523438 C 283.496094 227.621094 272.136719 234.972656 264.023438 234.253906 C 244.996094 232.566406 248.519531 218.566406 220.992188 233.867188 C 219.886719 234.480469 218.519531 234.378906 217.515625 233.605469 C 206.195312 224.882812 191.945312 224.976562 180.332031 233.855469 C 179.765625 234.292969 179.085938 234.511719 178.40625 234.511719 Z M 178.410156 234.511719 "/><path style=" stroke:none;fill-rule:evenodd;fill:#000000;fill-opacity:1;" d="M 195.4375 168.058594 C 194.488281 168.058594 193.554688 167.636719 192.925781 166.828125 L 177.832031 147.375 L 73.597656 147.375 C 72.6875 147.375 71.824219 146.980469 71.21875 146.300781 L 40.035156 111.019531 C 38.238281 108.992188 39.65625 105.773438 42.371094 105.734375 L 61.070312 105.464844 C 62.078125 105.476562 63.007812 105.902344 63.621094 106.6875 L 80.964844 128.949219 L 170.03125 128.949219 C 171.011719 128.949219 171.9375 129.402344 172.539062 130.179688 L 197.945312 162.929688 C 199.578125 165.039062 198 168.058594 195.433594 168.058594 Z M 75.03125 141.011719 L 172.902344 141.011719 L 168.476562 135.308594 L 79.410156 135.308594 C 78.429688 135.308594 77.507812 134.855469 76.90625 134.082031 L 59.582031 111.84375 L 49.378906 111.992188 L 75.035156 141.011719 Z M 75.03125 141.011719 "/><path style=" stroke:none;fill-rule:evenodd;fill:#000000;fill-opacity:1;" d="M 55.746094 168.058594 C 53.058594 168.058594 51.558594 164.863281 53.34375 162.796875 L 71.199219 142.117188 C 73.9375 138.945312 78.738281 143.109375 76.007812 146.273438 L 58.152344 166.957031 C 57.523438 167.6875 56.640625 168.058594 55.746094 168.058594 Z M 55.746094 168.058594 "/><path style=" stroke:none;fill-rule:evenodd;fill:#000000;fill-opacity:1;" d="M 197.78125 168.058594 L 40.066406 168.058594 C 35.886719 168.058594 35.886719 161.699219 40.066406 161.699219 L 197.78125 161.699219 C 201.960938 161.699219 201.964844 168.058594 197.78125 168.058594 Z M 197.78125 168.058594 "/><g clip-rule="nonzero" clip-path="url(#dbb4699985)"><path style=" stroke:none;fill-rule:evenodd;fill:#000000;fill-opacity:1;" d="M 21.894531 96.488281 C 18.890625 96.488281 18.625 93.382812 17.933594 90.800781 C 8.582031 55.859375 35.089844 21.707031 70.824219 21.707031 C 95.648438 21.707031 117.464844 38.433594 123.875 62.386719 C 124.492188 64.691406 126.175781 68.632812 122.515625 69.613281 Z M 70.824219 28.0625 C 39.472656 28.0625 15.789062 57.796875 24.144531 89.410156 L 117.808594 64.289062 C 112.164062 42.929688 92.890625 28.0625 70.824219 28.0625 Z M 70.824219 28.0625 "/></g><path style=" stroke:none;fill-rule:evenodd;fill:#000000;fill-opacity:1;" d="M 48.652344 89.3125 C 47.613281 89.3125 46.601562 88.804688 45.992188 87.875 C 29.90625 63.285156 54.632812 25.273438 54.882812 24.894531 C 55.769531 23.550781 57.511719 23.085938 58.953125 23.800781 C 59.359375 24.003906 99.738281 45 98.117188 73.890625 C 97.882812 78.109375 91.539062 77.699219 91.773438 73.535156 C 92.941406 52.722656 67.050781 35.824219 58.675781 30.925781 C 53.875 39.359375 39.898438 66.957031 51.300781 84.390625 C 52.703125 86.53125 51.113281 89.308594 48.652344 89.308594 Z M 48.652344 89.3125 "/><path style=" stroke:none;fill-rule:evenodd;fill:#000000;fill-opacity:1;" d="M 85.773438 135.308594 C 84.371094 135.308594 83.085938 134.375 82.703125 132.953125 L 68.730469 80.742188 C 67.644531 76.699219 73.785156 75.050781 74.867188 79.097656 L 88.84375 131.304688 C 89.386719 133.332031 87.855469 135.308594 85.773438 135.308594 Z M 85.773438 135.308594 "/><path style=" stroke:none;fill-rule:evenodd;fill:#000000;fill-opacity:1;" d="M 177.875 74.621094 C 169.464844 74.621094 162.628906 67.773438 162.628906 59.355469 C 162.628906 50.941406 169.46875 44.09375 177.875 44.09375 C 186.285156 44.09375 193.128906 50.941406 193.128906 59.355469 C 193.128906 67.773438 186.285156 74.621094 177.875 74.621094 Z M 177.875 50.453125 C 166.171875 50.453125 166.171875 68.261719 177.875 68.261719 C 189.582031 68.261719 189.582031 50.453125 177.875 50.453125 Z M 177.875 50.453125 "/><path style=" stroke:none;fill-rule:evenodd;fill:#000000;fill-opacity:1;" d="M 177.875 42.558594 C 173.550781 42.558594 174.699219 36.5 174.699219 31.140625 C 174.699219 26.957031 181.054688 26.957031 181.054688 31.140625 C 181.054688 36.503906 182.203125 42.558594 177.875 42.558594 Z M 177.875 42.558594 "/><path style=" stroke:none;fill-rule:evenodd;fill:#000000;fill-opacity:1;" d="M 191.992188 48.414062 C 189.191406 48.414062 187.734375 44.996094 189.746094 42.980469 C 193.535156 39.191406 197 34.09375 200.0625 37.15625 C 203.125 40.21875 198.019531 43.683594 194.234375 47.480469 C 193.617188 48.101562 192.804688 48.414062 191.992188 48.414062 Z M 191.992188 48.414062 "/><path style=" stroke:none;fill-rule:evenodd;fill:#000000;fill-opacity:1;" d="M 206.070312 62.539062 C 200.71875 62.539062 194.664062 63.6875 194.664062 59.359375 C 194.664062 55.027344 200.71875 56.179688 206.070312 56.179688 C 210.25 56.179688 210.25 62.539062 206.070312 62.539062 Z M 206.070312 62.539062 "/><path style=" stroke:none;fill-rule:evenodd;fill:#000000;fill-opacity:1;" d="M 197.808594 82.492188 C 195.609375 82.492188 192.246094 78.246094 189.742188 75.738281 C 186.78125 72.773438 191.277344 68.277344 194.234375 71.238281 C 198.019531 75.027344 203.121094 78.5 200.058594 81.5625 C 199.441406 82.179688 198.625 82.492188 197.8125 82.492188 Z M 197.808594 82.492188 "/><path style=" stroke:none;fill-rule:evenodd;fill:#000000;fill-opacity:1;" d="M 177.875 90.757812 C 173.550781 90.757812 174.699219 84.695312 174.699219 79.339844 C 174.699219 75.152344 181.054688 75.152344 181.054688 79.339844 C 181.054688 84.703125 182.203125 90.757812 177.875 90.757812 Z M 177.875 90.757812 "/><path style=" stroke:none;fill-rule:evenodd;fill:#000000;fill-opacity:1;" d="M 157.945312 82.492188 C 155.136719 82.492188 153.691406 79.070312 155.695312 77.0625 C 159.480469 73.277344 162.949219 68.171875 166.011719 71.238281 C 169.066406 74.300781 163.984375 77.769531 160.191406 81.5625 C 159.570312 82.179688 158.753906 82.492188 157.945312 82.492188 Z M 157.945312 82.492188 "/><path style=" stroke:none;fill-rule:evenodd;fill:#000000;fill-opacity:1;" d="M 157.917969 62.539062 C 152.566406 62.539062 146.511719 63.6875 146.511719 59.359375 C 146.511719 55.027344 152.566406 56.179688 157.917969 56.179688 C 162.101562 56.179688 162.101562 62.539062 157.917969 62.539062 Z M 157.917969 62.539062 "/><path style=" stroke:none;fill-rule:evenodd;fill:#000000;fill-opacity:1;" d="M 163.765625 48.414062 C 161.5625 48.414062 158.214844 44.171875 155.695312 41.65625 C 152.734375 38.695312 157.234375 34.195312 160.191406 37.160156 C 163.976562 40.953125 169.074219 44.417969 166.011719 47.480469 C 165.390625 48.101562 164.574219 48.414062 163.765625 48.414062 Z M 163.765625 48.414062 "/><path style=" stroke:none;fill-rule:evenodd;fill:#000000;fill-opacity:1;" d="M 277.28125 168.058594 L 197.78125 168.058594 C 193.597656 168.058594 193.601562 161.699219 197.78125 161.699219 L 277.28125 161.699219 C 281.460938 161.699219 281.460938 168.058594 277.28125 168.058594 Z M 277.28125 168.058594 "/><path style=" stroke:none;fill-rule:evenodd;fill:#000000;fill-opacity:1;" d="M 222.53125 194.4375 C 220.777344 194.4375 219.351562 193.011719 219.351562 191.257812 L 219.351562 121.59375 C 219.351562 113.367188 226.039062 106.679688 234.253906 106.679688 C 248.007812 106.679688 253.160156 124.773438 245.980469 124.773438 C 244.230469 124.773438 242.804688 123.351562 242.804688 121.59375 C 242.804688 110.332031 225.710938 110.332031 225.710938 121.59375 L 225.710938 191.257812 C 225.707031 193.011719 224.28125 194.4375 222.53125 194.4375 Z M 222.53125 194.4375 "/><path style=" stroke:none;fill-rule:evenodd;fill:#000000;fill-opacity:1;" d="M 260.53125 194.4375 C 258.777344 194.4375 257.355469 193.011719 257.355469 191.257812 L 257.355469 121.59375 C 257.355469 113.367188 264.039062 106.679688 272.257812 106.679688 C 286.007812 106.679688 291.164062 124.773438 283.980469 124.773438 C 282.230469 124.773438 280.804688 123.351562 280.804688 121.59375 C 280.804688 110.332031 263.710938 110.328125 263.710938 121.59375 L 263.710938 191.257812 C 263.707031 193.011719 262.285156 194.4375 260.53125 194.4375 Z M 260.53125 194.4375 "/><path style=" stroke:none;fill-rule:evenodd;fill:#000000;fill-opacity:1;" d="M 260.53125 138.917969 L 222.527344 138.917969 C 218.347656 138.917969 218.347656 132.558594 222.527344 132.558594 L 260.53125 132.558594 C 264.714844 132.558594 264.714844 138.917969 260.53125 138.917969 Z M 260.53125 138.917969 "/><path style=" stroke:none;fill-rule:evenodd;fill:#000000;fill-opacity:1;" d="M 260.53125 153.488281 L 222.527344 153.488281 C 218.347656 153.488281 218.347656 147.128906 222.527344 147.128906 L 260.53125 147.128906 C 264.714844 147.128906 264.714844 153.488281 260.53125 153.488281 Z M 260.53125 153.488281 "/><path style=" stroke:none;fill-rule:evenodd;fill:#000000;fill-opacity:1;" d="M 260.53125 168.058594 L 222.527344 168.058594 C 218.347656 168.058594 218.347656 161.699219 222.527344 161.699219 L 260.53125 161.699219 C 264.714844 161.699219 264.714844 168.058594 260.53125 168.058594 Z M 260.53125 168.058594 "/><path style=" stroke:none;fill-rule:evenodd;fill:#000000;fill-opacity:1;" d="M 260.53125 182.625 L 222.527344 182.625 C 218.347656 182.625 218.347656 176.265625 222.527344 176.265625 L 260.53125 176.265625 C 264.714844 176.265625 264.714844 182.625 260.53125 182.625 Z M 260.53125 182.625 "/></g></svg>