<svg xmlns="http://www.w3.org/2000/svg" xmlns:xlink="http://www.w3.org/1999/xlink" width="400" zoomAndPan="magnify" viewBox="0 0 300 270" height="350" preserveAspectRatio="xMidYMid meet" version="1.2"><defs><clipPath id="5f142b947d"><path d="M 15.191406 34.039062 L 240 34.039062 L 240 215 L 15.191406 215 Z M 15.191406 34.039062 "/></clipPath><clipPath id="d607492d3e"><path d="M 212 110 L 284.441406 110 L 284.441406 236.539062 L 212 236.539062 Z M 212 110 "/></clipPath></defs><g id="ecc0769980"><g clip-rule="nonzero" clip-path="url(#5f142b947d)"><path style=" stroke:none;fill-rule:nonzero;fill:#000000;fill-opacity:1;" d="M 203.667969 187.039062 L 24.167969 187.039062 L 24.167969 43.039062 L 230.589844 43.039062 L 230.589844 63.332031 C 230.652344 69.242188 239.492188 69.238281 239.566406 63.332031 C 239.566406 63.332031 239.566406 43.039062 239.566406 43.039062 C 239.566406 38.074219 235.539062 34.039062 230.589844 34.039062 L 24.167969 34.039062 C 19.222656 34.039062 15.195312 38.074219 15.195312 43.039062 L 15.195312 187.039062 C 15.195312 192 19.222656 196.039062 24.167969 196.039062 L 69.042969 196.039062 L 69.042969 209.539062 C 69.042969 212.023438 71.050781 214.039062 73.53125 214.039062 L 181.230469 214.039062 C 183.710938 214.039062 185.714844 212.023438 185.714844 209.539062 L 185.714844 196.039062 L 203.667969 196.039062 C 209.535156 196.011719 209.535156 187.0625 203.667969 187.039062 Z M 176.742188 205.039062 L 78.019531 205.039062 L 78.019531 196.039062 L 176.742188 196.039062 Z M 176.742188 205.039062 "/></g><path style=" stroke:none;fill-rule:nonzero;fill:#000000;fill-opacity:1;" d="M 104.941406 133.039062 C 107.421875 133.039062 109.429688 131.023438 109.429688 128.539062 L 109.429688 106.039062 L 118.40625 106.039062 C 120.886719 106.039062 122.890625 104.023438 122.890625 101.539062 C 122.890625 99.054688 120.886719 97.039062 118.40625 97.039062 L 91.480469 97.039062 C 89 97.039062 86.992188 99.054688 86.992188 101.539062 C 86.992188 104.023438 89 106.039062 91.480469 106.039062 L 100.457031 106.039062 L 100.457031 128.539062 C 100.457031 131.023438 102.460938 133.039062 104.941406 133.039062 Z M 104.941406 133.039062 "/><path style=" stroke:none;fill-rule:nonzero;fill:#000000;fill-opacity:1;" d="M 159.265625 99.523438 L 149.816406 118.476562 L 140.367188 99.523438 C 137.726562 94.277344 129.734375 98.269531 132.339844 103.550781 C 132.339844 103.550781 145.804688 130.550781 145.804688 130.550781 C 147.304688 133.8125 152.328125 133.820312 153.832031 130.550781 C 153.832031 130.550781 167.292969 103.550781 167.292969 103.550781 C 169.890625 98.28125 161.917969 94.265625 159.265625 99.523438 Z M 159.265625 99.523438 "/><g clip-rule="nonzero" clip-path="url(#d607492d3e)"><path style=" stroke:none;fill-rule:nonzero;fill:#000000;fill-opacity:1;" d="M 275.464844 110.539062 L 221.617188 110.539062 C 216.667969 110.539062 212.640625 114.574219 212.640625 119.539062 L 212.640625 227.539062 C 212.640625 232.5 216.667969 236.539062 221.617188 236.539062 L 275.464844 236.539062 C 280.414062 236.539062 284.441406 232.5 284.441406 227.539062 L 284.441406 119.539062 C 284.441406 114.574219 280.414062 110.539062 275.464844 110.539062 Z M 221.617188 227.539062 L 221.617188 119.539062 L 275.464844 119.539062 L 275.46875 227.539062 Z M 221.617188 227.539062 "/></g><path style=" stroke:none;fill-rule:nonzero;fill:#000000;fill-opacity:1;" d="M 37.632812 173.539062 C 37.746094 179.449219 46.492188 179.449219 46.605469 173.539062 C 46.566406 167.65625 37.667969 167.65625 37.632812 173.539062 Z M 37.632812 173.539062 "/><path style=" stroke:none;fill-rule:nonzero;fill:#000000;fill-opacity:1;" d="M 248.539062 178.039062 C 224.820312 178.792969 224.824219 213.285156 248.539062 214.039062 C 272.261719 213.285156 272.257812 178.789062 248.539062 178.039062 Z M 248.539062 205.039062 C 236.746094 204.828125 236.746094 187.246094 248.539062 187.039062 C 260.335938 187.25 260.332031 204.828125 248.539062 205.039062 Z M 248.539062 205.039062 "/><path style=" stroke:none;fill-rule:nonzero;fill:#000000;fill-opacity:1;" d="M 257.515625 142.039062 C 263.410156 141.921875 263.410156 133.148438 257.515625 133.039062 C 251.621094 133.152344 251.621094 141.925781 257.515625 142.039062 Z M 257.515625 142.039062 "/><path style=" stroke:none;fill-rule:nonzero;fill:#000000;fill-opacity:1;" d="M 239.566406 142.039062 C 245.460938 141.921875 245.460938 133.148438 239.566406 133.039062 C 233.671875 133.152344 233.671875 141.925781 239.566406 142.039062 Z M 239.566406 142.039062 "/><path style=" stroke:none;fill-rule:nonzero;fill:#000000;fill-opacity:1;" d="M 257.515625 160.039062 C 263.410156 159.921875 263.410156 151.148438 257.515625 151.039062 C 251.621094 151.152344 251.621094 159.925781 257.515625 160.039062 Z M 257.515625 160.039062 "/><path style=" stroke:none;fill-rule:nonzero;fill:#000000;fill-opacity:1;" d="M 239.566406 160.039062 C 245.460938 159.921875 245.460938 151.148438 239.566406 151.039062 C 233.671875 151.152344 233.671875 159.925781 239.566406 160.039062 Z M 239.566406 160.039062 "/><path style=" stroke:none;fill-rule:nonzero;fill:#000000;fill-opacity:1;" d="M 235.964844 93.9375 C 232.0625 98.332031 238.691406 104.316406 242.632812 99.957031 C 245.964844 96.246094 252.46875 96.246094 255.796875 99.957031 C 257.460938 101.808594 260.296875 101.953125 262.132812 100.292969 C 263.976562 98.632812 264.125 95.785156 262.46875 93.9375 C 255.785156 86.148438 242.648438 86.144531 235.964844 93.9375 Z M 235.964844 93.9375 "/><path style=" stroke:none;fill-rule:nonzero;fill:#000000;fill-opacity:1;" d="M 272.324219 89.296875 C 276.046875 89.421875 278.300781 84.53125 275.65625 81.785156 C 268.957031 74.320312 259.320312 70.039062 249.214844 70.039062 C 239.109375 70.039062 229.46875 74.320312 222.769531 81.785156 C 218.871094 86.175781 225.492188 92.171875 229.4375 87.808594 C 239.359375 76.226562 259.066406 76.226562 268.988281 87.808594 C 269.875 88.792969 271.097656 89.296875 272.324219 89.296875 Z M 272.324219 89.296875 "/></g></svg>