<svg xmlns="http://www.w3.org/2000/svg" xmlns:xlink="http://www.w3.org/1999/xlink" width="400" zoomAndPan="magnify" viewBox="0 0 300 270" height="350" preserveAspectRatio="xMidYMid meet" version="1.2"><defs><clipPath id="bf2f1eb674"><path d="M 218 51 L 264.691406 51 L 264.691406 213 L 218 213 Z M 218 51 "/></clipPath><clipPath id="03933932e9"><path d="M 35.191406 51 L 82 51 L 82 213 L 35.191406 213 Z M 35.191406 51 "/></clipPath></defs><g id="16ad6ab792"><path style=" stroke:none;fill-rule:nonzero;fill:#000000;fill-opacity:1;" d="M 174.648438 100.328125 C 174.355469 100.117188 174.042969 99.933594 173.714844 99.785156 C 173.386719 99.636719 173.042969 99.519531 172.691406 99.4375 C 172.339844 99.355469 171.984375 99.308594 171.621094 99.296875 C 171.261719 99.28125 170.902344 99.304688 170.546875 99.367188 C 170.1875 99.425781 169.839844 99.515625 169.503906 99.644531 C 169.164062 99.773438 168.839844 99.929688 168.535156 100.121094 C 168.226562 100.3125 167.941406 100.535156 167.675781 100.78125 C 167.414062 101.027344 167.175781 101.300781 166.964844 101.59375 C 166.753906 101.890625 166.574219 102.203125 166.425781 102.53125 C 166.273438 102.863281 166.160156 103.203125 166.074219 103.554688 C 165.992188 103.910156 165.945312 104.265625 165.933594 104.628906 C 165.921875 104.992188 165.945312 105.351562 166.003906 105.710938 C 166.0625 106.066406 166.15625 106.414062 166.28125 106.753906 C 166.410156 107.09375 166.566406 107.417969 166.757812 107.726562 C 166.949219 108.035156 167.167969 108.320312 167.414062 108.585938 C 167.660156 108.851562 167.933594 109.089844 168.226562 109.300781 C 168.679688 109.609375 169.125 109.929688 169.5625 110.265625 C 169.996094 110.601562 170.421875 110.949219 170.835938 111.308594 C 171.25 111.671875 171.652344 112.042969 172.042969 112.429688 C 172.4375 112.816406 172.816406 113.214844 173.183594 113.621094 C 173.550781 114.03125 173.90625 114.453125 174.246094 114.882812 C 174.585938 115.3125 174.917969 115.753906 175.230469 116.207031 C 175.546875 116.65625 175.847656 117.117188 176.132812 117.585938 C 176.421875 118.054688 176.691406 118.53125 176.949219 119.019531 C 177.207031 119.503906 177.449219 120 177.679688 120.5 C 177.90625 121 178.117188 121.507812 178.316406 122.023438 C 178.511719 122.535156 178.691406 123.054688 178.855469 123.578125 C 179.023438 124.105469 179.171875 124.632812 179.304688 125.167969 C 179.4375 125.703125 179.554688 126.242188 179.652344 126.78125 C 179.753906 127.324219 179.835938 127.867188 179.902344 128.414062 C 179.96875 128.960938 180.019531 129.507812 180.054688 130.054688 C 180.085938 130.605469 180.105469 131.15625 180.105469 131.707031 C 180.105469 132.257812 180.085938 132.808594 180.054688 133.355469 C 180.019531 133.90625 179.96875 134.453125 179.902344 135 C 179.835938 135.546875 179.753906 136.089844 179.652344 136.632812 C 179.554688 137.171875 179.4375 137.710938 179.304688 138.246094 C 179.171875 138.777344 179.023438 139.308594 178.855469 139.832031 C 178.691406 140.359375 178.511719 140.878906 178.316406 141.390625 C 178.117188 141.90625 177.90625 142.414062 177.679688 142.914062 C 177.449219 143.414062 177.207031 143.90625 176.949219 144.394531 C 176.691406 144.878906 176.421875 145.359375 176.132812 145.828125 C 175.847656 146.296875 175.546875 146.757812 175.230469 147.207031 C 174.917969 147.660156 174.585938 148.097656 174.246094 148.53125 C 173.90625 148.960938 173.550781 149.378906 173.183594 149.789062 C 172.816406 150.199219 172.4375 150.597656 172.042969 150.984375 C 171.652344 151.367188 171.25 151.742188 170.835938 152.101562 C 170.421875 152.464844 169.996094 152.8125 169.5625 153.148438 C 169.125 153.484375 168.679688 153.804688 168.226562 154.113281 C 167.757812 154.453125 167.351562 154.855469 167.011719 155.324219 C 166.667969 155.792969 166.410156 156.304688 166.226562 156.855469 C 166.046875 157.40625 165.957031 157.972656 165.953125 158.550781 C 165.953125 159.132812 166.039062 159.699219 166.214844 160.25 C 166.394531 160.804688 166.652344 161.316406 166.988281 161.785156 C 167.328125 162.257812 167.726562 162.664062 168.195312 163.007812 C 168.660156 163.351562 169.167969 163.613281 169.71875 163.796875 C 170.265625 163.980469 170.832031 164.074219 171.410156 164.078125 C 172.578125 164.085938 173.636719 163.753906 174.59375 163.085938 C 175.226562 162.652344 175.847656 162.199219 176.453125 161.726562 C 177.054688 161.253906 177.648438 160.761719 178.222656 160.253906 C 178.796875 159.746094 179.359375 159.222656 179.902344 158.679688 C 180.445312 158.136719 180.972656 157.578125 181.480469 157.003906 C 181.992188 156.429688 182.484375 155.839844 182.957031 155.234375 C 183.433594 154.632812 183.886719 154.011719 184.324219 153.382812 C 184.761719 152.75 185.179688 152.105469 185.578125 151.449219 C 185.976562 150.789062 186.355469 150.121094 186.710938 149.441406 C 187.070312 148.761719 187.40625 148.070312 187.722656 147.371094 C 188.039062 146.667969 188.332031 145.960938 188.605469 145.242188 C 188.878906 144.523438 189.128906 143.796875 189.355469 143.0625 C 189.585938 142.328125 189.792969 141.585938 189.976562 140.839844 C 190.160156 140.09375 190.324219 139.34375 190.460938 138.585938 C 190.601562 137.832031 190.714844 137.070312 190.808594 136.308594 C 190.902344 135.542969 190.96875 134.777344 191.015625 134.011719 C 191.0625 133.242188 191.085938 132.476562 191.085938 131.707031 C 191.085938 130.9375 191.0625 130.167969 191.015625 129.402344 C 190.96875 128.632812 190.902344 127.867188 190.808594 127.105469 C 190.714844 126.34375 190.601562 125.582031 190.460938 124.824219 C 190.324219 124.070312 190.160156 123.316406 189.976562 122.570312 C 189.792969 121.824219 189.585938 121.085938 189.355469 120.351562 C 189.128906 119.617188 188.878906 118.890625 188.605469 118.171875 C 188.332031 117.453125 188.039062 116.742188 187.722656 116.042969 C 187.40625 115.34375 187.070312 114.652344 186.710938 113.972656 C 186.355469 113.292969 185.976562 112.621094 185.578125 111.964844 C 185.179688 111.308594 184.761719 110.664062 184.324219 110.03125 C 183.886719 109.398438 183.433594 108.78125 182.957031 108.175781 C 182.484375 107.574219 181.992188 106.984375 181.480469 106.410156 C 180.972656 105.835938 180.445312 105.277344 179.902344 104.734375 C 179.359375 104.191406 178.796875 103.667969 178.222656 103.160156 C 177.648438 102.648438 177.054688 102.160156 176.453125 101.6875 C 175.847656 101.214844 175.226562 100.761719 174.59375 100.328125 Z M 174.648438 100.328125 "/><path style=" stroke:none;fill-rule:nonzero;fill:#000000;fill-opacity:1;" d="M 192.164062 84.527344 C 191.882812 84.304688 191.585938 84.109375 191.265625 83.941406 C 190.949219 83.777344 190.617188 83.644531 190.273438 83.542969 C 189.929688 83.441406 189.578125 83.375 189.222656 83.34375 C 188.863281 83.3125 188.507812 83.316406 188.152344 83.355469 C 187.792969 83.390625 187.445312 83.464844 187.101562 83.570312 C 186.761719 83.679688 186.433594 83.816406 186.117188 83.988281 C 185.800781 84.160156 185.507812 84.359375 185.230469 84.589844 C 184.953125 84.820312 184.703125 85.074219 184.476562 85.351562 C 184.246094 85.636719 184.046875 85.941406 183.875 86.265625 C 183.707031 86.589844 183.570312 86.925781 183.464844 87.277344 C 183.363281 87.628906 183.296875 87.988281 183.265625 88.351562 C 183.230469 88.71875 183.238281 89.082031 183.277344 89.445312 C 183.320312 89.8125 183.394531 90.167969 183.507812 90.515625 C 183.617188 90.863281 183.765625 91.199219 183.941406 91.519531 C 184.121094 91.839844 184.328125 92.136719 184.566406 92.414062 C 184.804688 92.695312 185.066406 92.945312 185.355469 93.171875 C 186.09375 93.730469 186.816406 94.316406 187.519531 94.917969 C 188.222656 95.523438 188.910156 96.144531 189.578125 96.789062 C 190.246094 97.433594 190.898438 98.09375 191.527344 98.773438 C 192.15625 99.453125 192.769531 100.152344 193.359375 100.871094 C 193.949219 101.585938 194.519531 102.316406 195.066406 103.066406 C 195.613281 103.816406 196.140625 104.578125 196.644531 105.359375 C 197.152344 106.136719 197.632812 106.929688 198.089844 107.738281 C 198.550781 108.542969 198.984375 109.363281 199.398438 110.195312 C 199.808594 111.027344 200.195312 111.871094 200.558594 112.726562 C 200.921875 113.582031 201.261719 114.445312 201.574219 115.320312 C 201.890625 116.195312 202.179688 117.078125 202.441406 117.96875 C 202.703125 118.859375 202.941406 119.753906 203.152344 120.660156 C 203.363281 121.5625 203.550781 122.472656 203.710938 123.390625 C 203.867188 124.304688 204 125.222656 204.109375 126.144531 C 204.214844 127.070312 204.292969 127.996094 204.347656 128.921875 C 204.402344 129.847656 204.425781 130.777344 204.425781 131.707031 C 204.425781 132.636719 204.402344 133.5625 204.347656 134.492188 C 204.292969 135.417969 204.214844 136.34375 204.109375 137.265625 C 204 138.1875 203.867188 139.109375 203.710938 140.023438 C 203.550781 140.9375 203.363281 141.847656 203.152344 142.753906 C 202.941406 143.65625 202.703125 144.554688 202.441406 145.445312 C 202.179688 146.335938 201.890625 147.21875 201.574219 148.09375 C 201.261719 148.96875 200.921875 149.832031 200.558594 150.6875 C 200.195312 151.539062 199.808594 152.382812 199.398438 153.214844 C 198.984375 154.046875 198.550781 154.867188 198.089844 155.675781 C 197.632812 156.480469 197.152344 157.273438 196.644531 158.054688 C 196.140625 158.832031 195.613281 159.597656 195.066406 160.347656 C 194.519531 161.09375 193.949219 161.828125 193.359375 162.542969 C 192.769531 163.257812 192.15625 163.957031 191.527344 164.636719 C 190.898438 165.320312 190.246094 165.980469 189.578125 166.625 C 188.910156 167.265625 188.222656 167.890625 187.519531 168.496094 C 186.816406 169.097656 186.09375 169.679688 185.355469 170.242188 C 185.070312 170.46875 184.8125 170.71875 184.578125 170.996094 C 184.34375 171.273438 184.136719 171.570312 183.960938 171.886719 C 183.785156 172.203125 183.644531 172.535156 183.53125 172.878906 C 183.421875 173.226562 183.347656 173.578125 183.304688 173.941406 C 183.265625 174.300781 183.257812 174.660156 183.289062 175.023438 C 183.320312 175.386719 183.386719 175.742188 183.488281 176.089844 C 183.585938 176.4375 183.71875 176.773438 183.886719 177.097656 C 184.054688 177.417969 184.25 177.722656 184.476562 178.003906 C 185 178.652344 185.636719 179.152344 186.386719 179.511719 C 187.136719 179.867188 187.929688 180.042969 188.761719 180.042969 C 190.035156 180.035156 191.167969 179.628906 192.164062 178.832031 C 193.066406 178.140625 193.949219 177.425781 194.808594 176.6875 C 195.671875 175.949219 196.511719 175.183594 197.328125 174.398438 C 198.144531 173.609375 198.9375 172.796875 199.710938 171.964844 C 200.480469 171.132812 201.226562 170.277344 201.949219 169.398438 C 202.671875 168.523438 203.367188 167.625 204.039062 166.707031 C 204.707031 165.792969 205.351562 164.855469 205.96875 163.902344 C 206.585938 162.949219 207.175781 161.976562 207.734375 160.988281 C 208.296875 160 208.828125 158.996094 209.332031 157.980469 C 209.835938 156.960938 210.308594 155.925781 210.753906 154.882812 C 211.199219 153.835938 211.613281 152.777344 211.996094 151.707031 C 212.378906 150.636719 212.734375 149.558594 213.054688 148.46875 C 213.375 147.375 213.664062 146.277344 213.925781 145.171875 C 214.183594 144.0625 214.410156 142.949219 214.605469 141.832031 C 214.800781 140.710938 214.960938 139.585938 215.089844 138.457031 C 215.222656 137.328125 215.320312 136.195312 215.382812 135.058594 C 215.449219 133.925781 215.480469 132.789062 215.480469 131.652344 C 215.480469 130.515625 215.449219 129.378906 215.382812 128.242188 C 215.320312 127.109375 215.222656 125.976562 215.089844 124.847656 C 214.960938 123.71875 214.800781 122.59375 214.605469 121.472656 C 214.410156 120.351562 214.183594 119.238281 213.925781 118.132812 C 213.664062 117.023438 213.375 115.925781 213.054688 114.835938 C 212.734375 113.746094 212.378906 112.664062 211.996094 111.59375 C 211.613281 110.523438 211.199219 109.46875 210.753906 108.421875 C 210.308594 107.375 209.835938 106.34375 209.332031 105.324219 C 208.828125 104.304688 208.296875 103.300781 207.734375 102.3125 C 207.175781 101.324219 206.585938 100.355469 205.96875 99.402344 C 205.351562 98.445312 204.707031 97.511719 204.039062 96.59375 C 203.367188 95.675781 202.671875 94.78125 201.949219 93.902344 C 201.226562 93.027344 200.480469 92.171875 199.710938 91.339844 C 198.9375 90.503906 198.144531 89.695312 197.328125 88.90625 C 196.511719 88.117188 195.671875 87.355469 194.808594 86.613281 C 193.949219 85.875 193.066406 85.160156 192.164062 84.472656 Z M 192.164062 84.527344 "/><path style=" stroke:none;fill-rule:nonzero;fill:#000000;fill-opacity:1;" d="M 209.625 68.507812 C 209.34375 68.304688 209.046875 68.128906 208.734375 67.980469 C 208.417969 67.832031 208.09375 67.714844 207.761719 67.628906 C 207.425781 67.542969 207.085938 67.492188 206.738281 67.46875 C 206.394531 67.449219 206.050781 67.460938 205.707031 67.503906 C 205.363281 67.546875 205.027344 67.625 204.695312 67.730469 C 204.367188 67.839844 204.050781 67.976562 203.75 68.144531 C 203.445312 68.3125 203.160156 68.507812 202.894531 68.726562 C 202.628906 68.949219 202.386719 69.195312 202.164062 69.460938 C 201.945312 69.730469 201.75 70.015625 201.585938 70.320312 C 201.417969 70.625 201.28125 70.941406 201.175781 71.273438 C 201.070312 71.601562 200.996094 71.941406 200.953125 72.285156 C 200.910156 72.628906 200.898438 72.972656 200.921875 73.320312 C 200.945312 73.667969 201 74.007812 201.085938 74.34375 C 201.171875 74.679688 201.289062 75.003906 201.4375 75.316406 C 201.585938 75.632812 201.761719 75.929688 201.964844 76.210938 C 202.167969 76.488281 202.398438 76.75 202.652344 76.984375 C 203.675781 77.800781 204.675781 78.640625 205.652344 79.511719 C 206.628906 80.382812 207.582031 81.277344 208.511719 82.203125 C 209.4375 83.125 210.335938 84.074219 211.210938 85.050781 C 212.085938 86.027344 212.929688 87.023438 213.746094 88.046875 C 214.566406 89.070312 215.351562 90.113281 216.113281 91.179688 C 216.871094 92.25 217.597656 93.335938 218.296875 94.445312 C 218.996094 95.550781 219.660156 96.679688 220.292969 97.824219 C 220.929688 98.972656 221.53125 100.132812 222.101562 101.3125 C 222.667969 102.492188 223.203125 103.6875 223.707031 104.898438 C 224.207031 106.109375 224.675781 107.332031 225.109375 108.570312 C 225.542969 109.804688 225.941406 111.054688 226.304688 112.3125 C 226.667969 113.570312 226.996094 114.839844 227.285156 116.117188 C 227.578125 117.394531 227.835938 118.679688 228.054688 119.96875 C 228.273438 121.261719 228.457031 122.558594 228.605469 123.863281 C 228.75 125.164062 228.859375 126.46875 228.933594 127.777344 C 229.007812 129.085938 229.046875 130.394531 229.046875 131.707031 C 229.046875 133.015625 229.007812 134.328125 228.933594 135.636719 C 228.859375 136.945312 228.75 138.25 228.605469 139.550781 C 228.457031 140.851562 228.273438 142.148438 228.054688 143.441406 C 227.835938 144.734375 227.578125 146.019531 227.285156 147.296875 C 226.996094 148.574219 226.667969 149.84375 226.304688 151.101562 C 225.941406 152.359375 225.542969 153.609375 225.109375 154.84375 C 224.675781 156.082031 224.207031 157.304688 223.707031 158.515625 C 223.203125 159.722656 222.667969 160.917969 222.101562 162.097656 C 221.53125 163.277344 220.929688 164.441406 220.292969 165.585938 C 219.660156 166.734375 218.996094 167.859375 218.296875 168.96875 C 217.597656 170.078125 216.871094 171.164062 216.113281 172.230469 C 215.351562 173.296875 214.566406 174.34375 213.746094 175.367188 C 212.929688 176.386719 212.085938 177.386719 211.210938 178.363281 C 210.335938 179.335938 209.4375 180.285156 208.511719 181.210938 C 207.582031 182.132812 206.628906 183.03125 205.652344 183.902344 C 204.675781 184.773438 203.675781 185.613281 202.652344 186.425781 C 202.214844 186.789062 201.84375 187.207031 201.539062 187.683594 C 201.230469 188.160156 201.003906 188.671875 200.855469 189.21875 C 200.707031 189.765625 200.644531 190.324219 200.667969 190.890625 C 200.691406 191.457031 200.796875 192.003906 200.992188 192.539062 C 201.183594 193.070312 201.449219 193.5625 201.792969 194.011719 C 202.136719 194.464844 202.542969 194.851562 203.003906 195.175781 C 203.46875 195.5 203.96875 195.75 204.507812 195.917969 C 205.046875 196.089844 205.597656 196.171875 206.164062 196.171875 C 207.476562 196.191406 208.632812 195.769531 209.625 194.90625 C 210.808594 193.964844 211.96875 192.992188 213.101562 191.984375 C 214.234375 190.980469 215.335938 189.941406 216.410156 188.875 C 217.484375 187.804688 218.523438 186.707031 219.535156 185.578125 C 220.546875 184.453125 221.527344 183.296875 222.476562 182.113281 C 223.421875 180.929688 224.335938 179.722656 225.214844 178.488281 C 226.09375 177.253906 226.9375 175.996094 227.742188 174.714844 C 228.550781 173.429688 229.324219 172.128906 230.058594 170.800781 C 230.792969 169.476562 231.488281 168.132812 232.148438 166.765625 C 232.808594 165.402344 233.429688 164.019531 234.011719 162.617188 C 234.589844 161.21875 235.132812 159.800781 235.636719 158.371094 C 236.136719 156.941406 236.597656 155.496094 237.019531 154.039062 C 237.4375 152.582031 237.820312 151.117188 238.15625 149.636719 C 238.496094 148.160156 238.792969 146.671875 239.046875 145.175781 C 239.300781 143.683594 239.511719 142.179688 239.683594 140.675781 C 239.851562 139.167969 239.980469 137.65625 240.066406 136.144531 C 240.152344 134.628906 240.195312 133.113281 240.195312 131.597656 C 240.195312 130.078125 240.152344 128.5625 240.066406 127.050781 C 239.980469 125.535156 239.851562 124.023438 239.683594 122.519531 C 239.511719 121.011719 239.300781 119.511719 239.046875 118.015625 C 238.792969 116.519531 238.496094 115.035156 238.15625 113.554688 C 237.820312 112.078125 237.4375 110.609375 237.019531 109.152344 C 236.597656 107.695312 236.136719 106.25 235.636719 104.820312 C 235.132812 103.390625 234.589844 101.976562 234.011719 100.574219 C 233.429688 99.175781 232.808594 97.792969 232.148438 96.425781 C 231.488281 95.0625 230.792969 93.714844 230.058594 92.390625 C 229.324219 91.066406 228.550781 89.761719 227.742188 88.480469 C 226.9375 87.195312 226.09375 85.9375 225.214844 84.703125 C 224.335938 83.46875 223.421875 82.261719 222.476562 81.078125 C 221.527344 79.894531 220.546875 78.742188 219.535156 77.613281 C 218.523438 76.484375 217.484375 75.386719 216.410156 74.320312 C 215.335938 73.25 214.234375 72.214844 213.101562 71.207031 C 211.96875 70.203125 210.808594 69.226562 209.625 68.289062 Z M 209.625 68.507812 "/><g clip-rule="nonzero" clip-path="url(#bf2f1eb674)"><path style=" stroke:none;fill-rule:nonzero;fill:#000000;fill-opacity:1;" d="M 227.136719 52.433594 C 226.863281 52.199219 226.570312 51.992188 226.253906 51.816406 C 225.941406 51.636719 225.613281 51.492188 225.269531 51.382812 C 224.925781 51.269531 224.578125 51.191406 224.21875 51.148438 C 223.859375 51.105469 223.5 51.097656 223.140625 51.128906 C 222.78125 51.15625 222.429688 51.21875 222.082031 51.316406 C 221.734375 51.414062 221.402344 51.546875 221.078125 51.710938 C 220.757812 51.875 220.457031 52.066406 220.171875 52.289062 C 219.890625 52.515625 219.628906 52.761719 219.394531 53.039062 C 219.160156 53.3125 218.957031 53.609375 218.78125 53.921875 C 218.605469 54.238281 218.460938 54.566406 218.347656 54.910156 C 218.238281 55.253906 218.160156 55.605469 218.117188 55.964844 C 218.074219 56.324219 218.066406 56.683594 218.09375 57.042969 C 218.125 57.40625 218.1875 57.757812 218.285156 58.105469 C 218.382812 58.457031 218.511719 58.789062 218.675781 59.113281 C 218.839844 59.433594 219.03125 59.738281 219.253906 60.023438 C 219.476562 60.304688 219.726562 60.566406 220 60.800781 C 222.59375 62.960938 225.058594 65.257812 227.402344 67.683594 C 229.746094 70.113281 231.953125 72.664062 234.023438 75.332031 C 236.089844 78 238.007812 80.773438 239.777344 83.648438 C 241.546875 86.527344 243.15625 89.492188 244.605469 92.542969 C 246.054688 95.59375 247.332031 98.714844 248.445312 101.90625 C 249.554688 105.097656 250.492188 108.339844 251.253906 111.632812 C 252.011719 114.925781 252.59375 118.246094 252.996094 121.605469 C 253.398438 124.960938 253.617188 128.328125 253.65625 131.707031 C 253.636719 135.085938 253.433594 138.457031 253.042969 141.8125 C 252.65625 145.171875 252.085938 148.5 251.332031 151.792969 C 250.582031 155.089844 249.648438 158.332031 248.542969 161.527344 C 247.433594 164.71875 246.15625 167.839844 244.707031 170.894531 C 243.253906 173.945312 241.644531 176.910156 239.867188 179.785156 C 238.09375 182.65625 236.167969 185.425781 234.089844 188.089844 C 232.015625 190.75 229.796875 193.292969 227.441406 195.710938 C 225.085938 198.128906 222.605469 200.410156 220 202.558594 C 219.726562 202.792969 219.476562 203.050781 219.253906 203.335938 C 219.03125 203.621094 218.839844 203.921875 218.675781 204.246094 C 218.511719 204.566406 218.382812 204.902344 218.285156 205.25 C 218.1875 205.597656 218.125 205.953125 218.097656 206.3125 C 218.070312 206.671875 218.078125 207.03125 218.117188 207.390625 C 218.160156 207.75 218.238281 208.101562 218.351562 208.445312 C 218.460938 208.789062 218.605469 209.117188 218.78125 209.433594 C 218.957031 209.75 219.164062 210.042969 219.398438 210.316406 C 219.632812 210.59375 219.890625 210.839844 220.175781 211.066406 C 220.457031 211.289062 220.761719 211.480469 221.082031 211.644531 C 221.402344 211.808594 221.738281 211.941406 222.082031 212.039062 C 222.429688 212.136719 222.785156 212.199219 223.144531 212.226562 C 223.503906 212.257812 223.859375 212.25 224.21875 212.207031 C 224.578125 212.164062 224.925781 212.085938 225.269531 211.976562 C 225.613281 211.863281 225.941406 211.71875 226.253906 211.542969 C 226.570312 211.367188 226.863281 211.160156 227.136719 210.925781 C 230.027344 208.507812 232.78125 205.941406 235.394531 203.226562 C 238.007812 200.511719 240.46875 197.660156 242.773438 194.679688 C 245.078125 191.695312 247.21875 188.597656 249.1875 185.382812 C 251.160156 182.167969 252.953125 178.855469 254.566406 175.445312 C 256.179688 172.035156 257.605469 168.550781 258.84375 164.984375 C 260.082031 161.421875 261.125 157.800781 261.96875 154.125 C 262.816406 150.445312 263.464844 146.734375 263.910156 142.988281 C 264.355469 139.242188 264.597656 135.480469 264.636719 131.707031 C 264.597656 127.929688 264.359375 124.167969 263.914062 120.417969 C 263.46875 116.667969 262.824219 112.953125 261.980469 109.273438 C 261.132812 105.59375 260.089844 101.972656 258.855469 98.402344 C 257.617188 94.835938 256.191406 91.347656 254.578125 87.9375 C 252.964844 84.523438 251.171875 81.210938 249.199219 77.992188 C 247.226562 74.777344 245.089844 71.675781 242.78125 68.691406 C 240.472656 65.707031 238.011719 62.855469 235.398438 60.136719 C 232.785156 57.417969 230.03125 54.851562 227.136719 52.433594 Z M 227.136719 52.433594 "/></g><path style=" stroke:none;fill-rule:nonzero;fill:#000000;fill-opacity:1;" d="M 149.941406 122.238281 C 149.3125 122.226562 148.6875 122.277344 148.066406 122.390625 C 147.445312 122.503906 146.839844 122.675781 146.253906 122.90625 C 145.664062 123.140625 145.105469 123.425781 144.578125 123.769531 C 144.046875 124.113281 143.554688 124.503906 143.101562 124.941406 C 142.644531 125.382812 142.238281 125.863281 141.878906 126.382812 C 141.519531 126.902344 141.214844 127.453125 140.964844 128.03125 C 140.710938 128.613281 140.519531 129.210938 140.386719 129.828125 C 140.253906 130.449219 140.179688 131.074219 140.167969 131.707031 C 140.175781 132.484375 140.273438 133.25 140.46875 134.003906 C 140.664062 134.757812 140.949219 135.476562 141.324219 136.160156 C 141.695312 136.84375 142.148438 137.46875 142.679688 138.039062 C 143.207031 138.605469 143.800781 139.101562 144.453125 139.523438 L 144.453125 205.585938 C 144.453125 205.945312 144.488281 206.304688 144.558594 206.660156 C 144.628906 207.015625 144.730469 207.359375 144.871094 207.691406 C 145.007812 208.027344 145.175781 208.34375 145.378906 208.644531 C 145.578125 208.945312 145.804688 209.222656 146.058594 209.476562 C 146.316406 209.734375 146.59375 209.960938 146.890625 210.164062 C 147.191406 210.363281 147.507812 210.53125 147.839844 210.671875 C 148.175781 210.808594 148.519531 210.914062 148.871094 210.984375 C 149.226562 211.054688 149.582031 211.089844 149.941406 211.089844 C 150.304688 211.089844 150.660156 211.054688 151.011719 210.984375 C 151.367188 210.914062 151.710938 210.808594 152.042969 210.671875 C 152.375 210.53125 152.691406 210.363281 152.992188 210.164062 C 153.292969 209.960938 153.570312 209.734375 153.824219 209.476562 C 154.078125 209.222656 154.308594 208.945312 154.507812 208.644531 C 154.707031 208.34375 154.878906 208.027344 155.015625 207.691406 C 155.152344 207.359375 155.257812 207.015625 155.328125 206.660156 C 155.398438 206.304688 155.433594 205.945312 155.433594 205.585938 L 155.433594 139.523438 C 156.085938 139.101562 156.675781 138.605469 157.207031 138.039062 C 157.738281 137.46875 158.1875 136.84375 158.5625 136.160156 C 158.9375 135.476562 159.222656 134.757812 159.417969 134.003906 C 159.609375 133.25 159.710938 132.484375 159.714844 131.707031 C 159.703125 131.074219 159.632812 130.449219 159.5 129.828125 C 159.367188 129.210938 159.171875 128.613281 158.921875 128.03125 C 158.671875 127.453125 158.363281 126.902344 158.003906 126.382812 C 157.644531 125.863281 157.238281 125.382812 156.785156 124.941406 C 156.332031 124.503906 155.839844 124.113281 155.308594 123.769531 C 154.777344 123.425781 154.21875 123.140625 153.632812 122.90625 C 153.046875 122.675781 152.441406 122.503906 151.820312 122.390625 C 151.199219 122.277344 150.574219 122.226562 149.941406 122.238281 Z M 149.941406 122.238281 "/><path style=" stroke:none;fill-rule:nonzero;fill:#000000;fill-opacity:1;" d="M 119.746094 131.707031 C 119.769531 129.503906 120.054688 127.335938 120.597656 125.199219 C 121.140625 123.066406 121.929688 121.027344 122.960938 119.082031 C 123.992188 117.136719 125.238281 115.34375 126.699219 113.699219 C 128.160156 112.054688 129.796875 110.605469 131.605469 109.355469 C 131.898438 109.148438 132.167969 108.910156 132.414062 108.652344 C 132.660156 108.390625 132.882812 108.105469 133.074219 107.800781 C 133.265625 107.496094 133.425781 107.175781 133.554688 106.839844 C 133.683594 106.503906 133.777344 106.15625 133.839844 105.800781 C 133.898438 105.445312 133.925781 105.089844 133.917969 104.730469 C 133.90625 104.371094 133.863281 104.011719 133.785156 103.660156 C 133.707031 103.308594 133.59375 102.96875 133.449219 102.640625 C 133.304688 102.3125 133.128906 102 132.921875 101.703125 C 132.714844 101.40625 132.480469 101.132812 132.214844 100.878906 C 131.953125 100.628906 131.671875 100.40625 131.363281 100.210938 C 131.058594 100.015625 130.734375 99.855469 130.398438 99.722656 C 130.058594 99.59375 129.710938 99.5 129.351562 99.4375 C 128.996094 99.375 128.636719 99.347656 128.273438 99.359375 C 127.910156 99.371094 127.554688 99.414062 127.199219 99.496094 C 126.847656 99.578125 126.503906 99.691406 126.175781 99.839844 C 125.84375 99.992188 125.53125 100.171875 125.234375 100.382812 C 124.601562 100.816406 123.984375 101.269531 123.378906 101.742188 C 122.773438 102.214844 122.183594 102.707031 121.609375 103.214844 C 121.03125 103.722656 120.472656 104.246094 119.929688 104.789062 C 119.386719 105.332031 118.859375 105.890625 118.347656 106.464844 C 117.839844 107.039062 117.347656 107.628906 116.871094 108.230469 C 116.398438 108.835938 115.941406 109.453125 115.503906 110.085938 C 115.066406 110.71875 114.648438 111.363281 114.25 112.019531 C 113.855469 112.675781 113.476562 113.347656 113.117188 114.027344 C 112.761719 114.707031 112.425781 115.398438 112.109375 116.097656 C 111.792969 116.796875 111.5 117.507812 111.226562 118.226562 C 110.953125 118.945312 110.703125 119.671875 110.472656 120.40625 C 110.242188 121.140625 110.039062 121.878906 109.851562 122.625 C 109.667969 123.375 109.507812 124.125 109.367188 124.878906 C 109.230469 125.636719 109.113281 126.398438 109.023438 127.160156 C 108.929688 127.921875 108.859375 128.6875 108.8125 129.457031 C 108.765625 130.222656 108.742188 130.992188 108.742188 131.761719 C 108.742188 132.53125 108.765625 133.296875 108.8125 134.066406 C 108.859375 134.832031 108.929688 135.597656 109.023438 136.363281 C 109.113281 137.125 109.230469 137.886719 109.367188 138.640625 C 109.507812 139.398438 109.667969 140.148438 109.851562 140.894531 C 110.039062 141.644531 110.242188 142.382812 110.472656 143.117188 C 110.703125 143.851562 110.953125 144.578125 111.226562 145.296875 C 111.5 146.015625 111.792969 146.722656 112.109375 147.425781 C 112.425781 148.125 112.761719 148.816406 113.117188 149.496094 C 113.476562 150.175781 113.855469 150.84375 114.25 151.503906 C 114.648438 152.160156 115.066406 152.804688 115.503906 153.4375 C 115.941406 154.070312 116.398438 154.6875 116.871094 155.289062 C 117.347656 155.894531 117.839844 156.484375 118.347656 157.058594 C 118.859375 157.632812 119.386719 158.191406 119.929688 158.734375 C 120.472656 159.277344 121.03125 159.800781 121.609375 160.308594 C 122.183594 160.816406 122.773438 161.308594 123.378906 161.78125 C 123.984375 162.253906 124.601562 162.707031 125.234375 163.140625 C 126.191406 163.808594 127.253906 164.140625 128.421875 164.132812 C 129.308594 164.144531 130.148438 163.949219 130.945312 163.550781 C 131.738281 163.152344 132.398438 162.59375 132.921875 161.875 C 133.132812 161.582031 133.316406 161.269531 133.464844 160.9375 C 133.617188 160.609375 133.734375 160.265625 133.816406 159.914062 C 133.898438 159.558594 133.945312 159.203125 133.960938 158.839844 C 133.972656 158.476562 133.949219 158.117188 133.890625 157.757812 C 133.832031 157.398438 133.738281 157.050781 133.609375 156.710938 C 133.484375 156.371094 133.324219 156.046875 133.132812 155.738281 C 132.941406 155.429688 132.722656 155.144531 132.472656 154.878906 C 132.226562 154.617188 131.953125 154.378906 131.660156 154.167969 C 129.839844 152.914062 128.191406 151.460938 126.722656 149.808594 C 125.25 148.160156 123.996094 146.355469 122.960938 144.398438 C 121.921875 142.445312 121.132812 140.394531 120.589844 138.246094 C 120.042969 136.101562 119.765625 133.921875 119.746094 131.707031 Z M 119.746094 131.707031 "/><path style=" stroke:none;fill-rule:nonzero;fill:#000000;fill-opacity:1;" d="M 95.367188 131.707031 C 95.390625 129.847656 95.519531 127.996094 95.75 126.15625 C 95.984375 124.3125 96.316406 122.488281 96.753906 120.679688 C 97.191406 118.875 97.726562 117.097656 98.363281 115.355469 C 98.996094 113.609375 99.726562 111.90625 100.554688 110.242188 C 101.382812 108.578125 102.300781 106.96875 103.304688 105.410156 C 104.3125 103.847656 105.40625 102.351562 106.582031 100.914062 C 107.757812 99.480469 109.007812 98.113281 110.339844 96.820312 C 111.667969 95.523438 113.0625 94.308594 114.527344 93.171875 C 114.8125 92.945312 115.074219 92.695312 115.308594 92.417969 C 115.542969 92.140625 115.746094 91.84375 115.921875 91.527344 C 116.097656 91.210938 116.242188 90.878906 116.351562 90.53125 C 116.464844 90.1875 116.539062 89.832031 116.578125 89.472656 C 116.621094 89.113281 116.625 88.75 116.59375 88.390625 C 116.566406 88.027344 116.5 87.671875 116.398438 87.324219 C 116.296875 86.972656 116.164062 86.640625 115.996094 86.316406 C 115.832031 85.996094 115.632812 85.691406 115.40625 85.410156 C 115.179688 85.128906 114.929688 84.875 114.65625 84.644531 C 114.378906 84.417969 114.082031 84.214844 113.769531 84.042969 C 113.453125 83.871094 113.125 83.734375 112.78125 83.625 C 112.441406 83.519531 112.089844 83.449219 111.734375 83.410156 C 111.378906 83.371094 111.019531 83.367188 110.664062 83.398438 C 110.304688 83.429688 109.957031 83.496094 109.613281 83.597656 C 109.269531 83.699219 108.9375 83.832031 108.617188 83.996094 C 108.300781 84.164062 108 84.359375 107.722656 84.582031 C 106.820312 85.269531 105.9375 85.984375 105.074219 86.722656 C 104.214844 87.464844 103.375 88.226562 102.558594 89.015625 C 101.738281 89.804688 100.945312 90.613281 100.175781 91.449219 C 99.402344 92.28125 98.65625 93.136719 97.933594 94.015625 C 97.214844 94.890625 96.515625 95.789062 95.847656 96.703125 C 95.175781 97.621094 94.53125 98.558594 93.914062 99.511719 C 93.300781 100.464844 92.710938 101.4375 92.148438 102.425781 C 91.585938 103.410156 91.054688 104.414062 90.550781 105.433594 C 90.046875 106.453125 89.574219 107.484375 89.128906 108.53125 C 88.6875 109.578125 88.273438 110.636719 87.886719 111.707031 C 87.503906 112.773438 87.152344 113.855469 86.832031 114.945312 C 86.507812 116.035156 86.21875 117.132812 85.960938 118.242188 C 85.703125 119.347656 85.476562 120.460938 85.28125 121.582031 C 85.085938 122.703125 84.921875 123.828125 84.792969 124.957031 C 84.664062 126.085938 84.566406 127.21875 84.5 128.351562 C 84.433594 129.488281 84.402344 130.625 84.402344 131.761719 C 84.402344 132.898438 84.433594 134.035156 84.5 135.167969 C 84.566406 136.304688 84.664062 137.4375 84.792969 138.566406 C 84.921875 139.695312 85.085938 140.820312 85.28125 141.941406 C 85.476562 143.0625 85.703125 144.175781 85.960938 145.28125 C 86.21875 146.386719 86.507812 147.488281 86.832031 148.578125 C 87.152344 149.667969 87.503906 150.746094 87.886719 151.816406 C 88.273438 152.886719 88.6875 153.945312 89.128906 154.992188 C 89.574219 156.039062 90.046875 157.070312 90.550781 158.089844 C 91.054688 159.109375 91.585938 160.109375 92.148438 161.097656 C 92.710938 162.085938 93.300781 163.058594 93.914062 164.011719 C 94.53125 164.964844 95.175781 165.902344 95.847656 166.820312 C 96.515625 167.734375 97.214844 168.632812 97.933594 169.507812 C 98.65625 170.386719 99.402344 171.242188 100.175781 172.074219 C 100.945312 172.910156 101.738281 173.71875 102.558594 174.507812 C 103.375 175.296875 104.214844 176.058594 105.074219 176.796875 C 105.9375 177.539062 106.820312 178.25 107.722656 178.941406 C 108.714844 179.742188 109.851562 180.144531 111.125 180.152344 C 111.957031 180.15625 112.746094 179.976562 113.496094 179.621094 C 114.246094 179.261719 114.882812 178.761719 115.40625 178.113281 C 115.644531 177.828125 115.847656 177.523438 116.019531 177.199219 C 116.195312 176.871094 116.335938 176.53125 116.441406 176.179688 C 116.546875 175.824219 116.613281 175.464844 116.648438 175.09375 C 116.679688 174.726562 116.675781 174.359375 116.636719 173.992188 C 116.59375 173.625 116.515625 173.265625 116.402344 172.914062 C 116.289062 172.5625 116.144531 172.222656 115.960938 171.902344 C 115.78125 171.578125 115.570312 171.277344 115.328125 171 C 115.089844 170.71875 114.820312 170.46875 114.527344 170.242188 C 113.0625 169.105469 111.667969 167.890625 110.339844 166.59375 C 109.007812 165.300781 107.757812 163.933594 106.582031 162.496094 C 105.40625 161.0625 104.3125 159.5625 103.304688 158.003906 C 102.300781 156.445312 101.382812 154.832031 100.554688 153.171875 C 99.726562 151.507812 98.996094 149.804688 98.359375 148.058594 C 97.726562 146.3125 97.191406 144.539062 96.753906 142.730469 C 96.316406 140.925781 95.984375 139.101562 95.75 137.257812 C 95.519531 135.414062 95.390625 133.5625 95.367188 131.707031 Z M 95.367188 131.707031 "/><path style=" stroke:none;fill-rule:nonzero;fill:#000000;fill-opacity:1;" d="M 70.824219 131.707031 C 70.847656 129.089844 71.015625 126.480469 71.328125 123.882812 C 71.640625 121.28125 72.09375 118.707031 72.691406 116.160156 C 73.285156 113.609375 74.019531 111.101562 74.890625 108.632812 C 75.761719 106.167969 76.769531 103.753906 77.90625 101.398438 C 79.046875 99.042969 80.308594 96.757812 81.699219 94.542969 C 83.089844 92.324219 84.597656 90.195312 86.222656 88.144531 C 87.847656 86.097656 89.582031 84.144531 91.421875 82.289062 C 93.261719 80.429688 95.199219 78.683594 97.234375 77.039062 C 97.539062 76.820312 97.816406 76.570312 98.070312 76.292969 C 98.320312 76.015625 98.542969 75.714844 98.734375 75.390625 C 98.925781 75.066406 99.082031 74.726562 99.203125 74.371094 C 99.324219 74.015625 99.410156 73.652344 99.457031 73.28125 C 99.503906 72.90625 99.515625 72.535156 99.484375 72.160156 C 99.457031 71.785156 99.390625 71.417969 99.285156 71.054688 C 99.183594 70.695312 99.042969 70.347656 98.867188 70.015625 C 98.691406 69.683594 98.484375 69.371094 98.246094 69.082031 C 98.007812 68.789062 97.742188 68.527344 97.453125 68.292969 C 97.160156 68.058594 96.847656 67.855469 96.511719 67.683594 C 96.179688 67.511719 95.832031 67.375 95.46875 67.277344 C 95.109375 67.175781 94.742188 67.113281 94.367188 67.089844 C 93.992188 67.066406 93.621094 67.078125 93.25 67.132812 C 92.878906 67.183594 92.515625 67.273438 92.160156 67.398438 C 91.808594 67.527344 91.472656 67.6875 91.152344 67.882812 C 90.832031 68.078125 90.535156 68.304688 90.261719 68.5625 C 87.917969 70.460938 85.683594 72.484375 83.558594 74.628906 C 81.4375 76.773438 79.441406 79.03125 77.566406 81.398438 C 75.691406 83.765625 73.957031 86.230469 72.351562 88.789062 C 70.75 91.347656 69.296875 93.988281 67.984375 96.710938 C 66.671875 99.433594 65.515625 102.21875 64.511719 105.066406 C 63.507812 107.917969 62.664062 110.8125 61.980469 113.757812 C 61.296875 116.699219 60.773438 119.671875 60.417969 122.671875 C 60.058594 125.671875 59.871094 128.683594 59.84375 131.707031 C 59.875 134.730469 60.070312 137.746094 60.429688 140.75 C 60.792969 143.753906 61.316406 146.726562 62.003906 149.671875 C 62.691406 152.617188 63.535156 155.519531 64.539062 158.371094 C 65.546875 161.222656 66.703125 164.011719 68.011719 166.738281 C 69.324219 169.460938 70.777344 172.105469 72.378906 174.671875 C 73.980469 177.234375 75.714844 179.703125 77.585938 182.078125 C 79.457031 184.453125 81.453125 186.714844 83.570312 188.867188 C 85.691406 191.023438 87.917969 193.050781 90.261719 194.960938 C 91.253906 195.824219 92.40625 196.246094 93.71875 196.226562 C 94.535156 196.226562 95.316406 196.054688 96.054688 195.707031 C 96.792969 195.363281 97.425781 194.875 97.949219 194.246094 C 98.179688 193.964844 98.382812 193.667969 98.554688 193.351562 C 98.726562 193.03125 98.867188 192.699219 98.972656 192.355469 C 99.082031 192.007812 99.152344 191.65625 99.191406 191.296875 C 99.226562 190.9375 99.230469 190.574219 99.199219 190.214844 C 99.164062 189.855469 99.097656 189.5 98.992188 189.152344 C 98.890625 188.804688 98.753906 188.472656 98.585938 188.152344 C 98.417969 187.832031 98.21875 187.53125 97.992188 187.25 C 97.765625 186.96875 97.511719 186.714844 97.234375 186.480469 C 95.199219 184.835938 93.261719 183.082031 91.421875 181.21875 C 89.578125 179.359375 87.847656 177.398438 86.222656 175.347656 C 84.59375 173.292969 83.085938 171.15625 81.695312 168.933594 C 80.304688 166.714844 79.042969 164.425781 77.90625 162.0625 C 76.765625 159.703125 75.761719 157.285156 74.890625 154.816406 C 74.015625 152.34375 73.285156 149.832031 72.6875 147.277344 C 72.09375 144.726562 71.640625 142.148438 71.328125 139.542969 C 71.015625 136.941406 70.847656 134.328125 70.824219 131.707031 Z M 70.824219 131.707031 "/><g clip-rule="nonzero" clip-path="url(#03933932e9)"><path style=" stroke:none;fill-rule:nonzero;fill:#000000;fill-opacity:1;" d="M 46.226562 131.707031 C 46.246094 128.324219 46.453125 124.957031 46.839844 121.597656 C 47.230469 118.242188 47.800781 114.914062 48.550781 111.617188 C 49.304688 108.324219 50.234375 105.078125 51.34375 101.886719 C 52.449219 98.695312 53.730469 95.570312 55.179688 92.519531 C 56.628906 89.46875 58.242188 86.503906 60.015625 83.628906 C 61.789062 80.753906 63.714844 77.984375 65.792969 75.324219 C 67.871094 72.660156 70.085938 70.121094 72.441406 67.703125 C 74.796875 65.28125 77.277344 63 79.882812 60.855469 C 80.160156 60.621094 80.410156 60.359375 80.636719 60.078125 C 80.863281 59.792969 81.058594 59.488281 81.222656 59.164062 C 81.386719 58.84375 81.519531 58.507812 81.621094 58.15625 C 81.71875 57.808594 81.785156 57.453125 81.8125 57.089844 C 81.84375 56.730469 81.835938 56.367188 81.792969 56.007812 C 81.753906 55.644531 81.675781 55.292969 81.566406 54.949219 C 81.457031 54.601562 81.3125 54.269531 81.136719 53.953125 C 80.960938 53.636719 80.753906 53.339844 80.519531 53.0625 C 80.285156 52.785156 80.027344 52.535156 79.742188 52.308594 C 79.457031 52.082031 79.15625 51.886719 78.832031 51.722656 C 78.511719 51.558594 78.175781 51.425781 77.828125 51.324219 C 77.480469 51.226562 77.125 51.160156 76.761719 51.132812 C 76.402344 51.101562 76.042969 51.109375 75.683594 51.152344 C 75.324219 51.191406 74.972656 51.269531 74.625 51.382812 C 74.28125 51.492188 73.953125 51.636719 73.636719 51.8125 C 73.320312 51.992188 73.023438 52.195312 72.746094 52.433594 C 69.855469 54.851562 67.101562 57.417969 64.488281 60.136719 C 61.871094 62.855469 59.410156 65.707031 57.105469 68.691406 C 54.796875 71.675781 52.65625 74.777344 50.683594 77.992188 C 48.714844 81.210938 46.921875 84.523438 45.308594 87.9375 C 43.691406 91.347656 42.265625 94.835938 41.03125 98.402344 C 39.792969 101.972656 38.75 105.59375 37.90625 109.273438 C 37.058594 112.953125 36.414062 116.667969 35.972656 120.417969 C 35.527344 124.167969 35.285156 127.929688 35.246094 131.707031 C 35.285156 135.480469 35.527344 139.246094 35.972656 142.996094 C 36.414062 146.746094 37.058594 150.460938 37.90625 154.140625 C 38.75 157.820312 39.792969 161.441406 41.03125 165.007812 C 42.265625 168.574219 43.691406 172.066406 45.304688 175.476562 C 46.921875 178.886719 48.714844 182.203125 50.683594 185.417969 C 52.65625 188.636719 54.796875 191.738281 57.105469 194.722656 C 59.410156 197.707031 61.871094 200.558594 64.488281 203.277344 C 67.101562 205.992188 69.855469 208.5625 72.746094 210.980469 C 73.019531 211.214844 73.316406 211.421875 73.628906 211.597656 C 73.945312 211.777344 74.273438 211.921875 74.617188 212.03125 C 74.957031 212.144531 75.308594 212.222656 75.667969 212.265625 C 76.023438 212.308594 76.382812 212.316406 76.742188 212.285156 C 77.101562 212.257812 77.457031 212.195312 77.804688 212.097656 C 78.152344 212 78.484375 211.871094 78.804688 211.707031 C 79.128906 211.542969 79.429688 211.347656 79.714844 211.125 C 79.996094 210.902344 80.257812 210.652344 80.492188 210.375 C 80.726562 210.101562 80.929688 209.804688 81.105469 209.492188 C 81.28125 209.175781 81.425781 208.847656 81.539062 208.503906 C 81.652344 208.160156 81.726562 207.808594 81.769531 207.449219 C 81.8125 207.089844 81.820312 206.730469 81.792969 206.367188 C 81.765625 206.007812 81.699219 205.652344 81.601562 205.304688 C 81.503906 204.957031 81.375 204.621094 81.210938 204.300781 C 81.046875 203.976562 80.855469 203.675781 80.628906 203.390625 C 80.40625 203.105469 80.160156 202.847656 79.882812 202.613281 C 77.292969 200.453125 74.824219 198.15625 72.480469 195.726562 C 70.136719 193.300781 67.929688 190.75 65.863281 188.082031 C 63.792969 185.414062 61.875 182.640625 60.105469 179.761719 C 58.335938 176.886719 56.730469 173.921875 55.28125 170.871094 C 53.832031 167.816406 52.550781 164.695312 51.441406 161.507812 C 50.328125 158.316406 49.394531 155.074219 48.632812 151.78125 C 47.871094 148.488281 47.289062 145.164062 46.886719 141.808594 C 46.484375 138.453125 46.265625 135.085938 46.226562 131.707031 Z M 46.226562 131.707031 "/></g></g></svg>